<?xml version="1.0" encoding="utf-8" standalone="no"?>
<!DOCTYPE svg PUBLIC "-//W3C//DTD SVG 1.1//EN"
  "http://www.w3.org/Graphics/SVG/1.1/DTD/svg11.dtd">
<svg xmlns:xlink="http://www.w3.org/1999/xlink" width="955.44pt" height="426.24pt" viewBox="0 0 955.44 426.24" xmlns="http://www.w3.org/2000/svg" version="1.1">
 <metadata>
  <rdf:RDF xmlns:dc="http://purl.org/dc/elements/1.1/" xmlns:cc="http://creativecommons.org/ns#" xmlns:rdf="http://www.w3.org/1999/02/22-rdf-syntax-ns#">
   <cc:Work>
    <dc:type rdf:resource="http://purl.org/dc/dcmitype/StillImage"/>
    <dc:date>2026-08-20T17:21:51.751492</dc:date>
    <dc:format>image/svg+xml</dc:format>
    <dc:creator>
     <cc:Agent>
      <dc:title>Matplotlib v3.10.9, https://matplotlib.org/</dc:title>
     </cc:Agent>
    </dc:creator>
   </cc:Work>
  </rdf:RDF>
 </metadata>
 <defs>
  <style type="text/css">*{stroke-linejoin: round; stroke-linecap: butt}</style>
 </defs>
 <g id="figure_1">
  <g id="patch_1">
   <path d="M 0 426.24 
L 955.44 426.24 
L 955.44 0 
L 0 0 
z
" style="fill: #ffffff"/>
  </g>
  <g id="axes_1">
   <g id="patch_2">
    <path d="M 55.19 377.08 
L 933.255 377.08 
L 933.255 15.84 
L 55.19 15.84 
z
" style="fill: #ffffff"/>
   </g>
   <g id="matplotlib.axis_1">
    <g id="xtick_1">
     <g id="line2d_1">
      <defs>
       <path id="m90687e6c94" d="M 0 0 
L 0 3.5 
" style="stroke: #4b5563; stroke-width: 0.8"/>
      </defs>
      <g>
       <use xlink:href="#m90687e6c94" x="63.97065" y="377.08" style="fill: #4b5563; stroke: #4b5563; stroke-width: 0.8"/>
      </g>
     </g>
     <g id="text_1">
      <!-- 1 -->
      <g style="fill: #4b5563" transform="translate(60.15315 393.198125) scale(0.12 -0.12)">
       <defs>
        <path id="DejaVuSans-31" d="M 794 531 
L 1825 531 
L 1825 4091 
L 703 3866 
L 703 4441 
L 1819 4666 
L 2450 4666 
L 2450 531 
L 3481 531 
L 3481 0 
L 794 0 
L 794 531 
z
" transform="scale(0.015625)"/>
       </defs>
       <use xlink:href="#DejaVuSans-31"/>
      </g>
     </g>
    </g>
    <g id="xtick_2">
     <g id="line2d_2">
      <g>
       <use xlink:href="#m90687e6c94" x="125.4352" y="377.08" style="fill: #4b5563; stroke: #4b5563; stroke-width: 0.8"/>
      </g>
     </g>
     <g id="text_2">
      <!-- 8 -->
      <g style="fill: #4b5563" transform="translate(121.6177 393.198125) scale(0.12 -0.12)">
       <defs>
        <path id="DejaVuSans-38" d="M 2034 2216 
Q 1584 2216 1326 1975 
Q 1069 1734 1069 1313 
Q 1069 891 1326 650 
Q 1584 409 2034 409 
Q 2484 409 2743 651 
Q 3003 894 3003 1313 
Q 3003 1734 2745 1975 
Q 2488 2216 2034 2216 
z
M 1403 2484 
Q 997 2584 770 2862 
Q 544 3141 544 3541 
Q 544 4100 942 4425 
Q 1341 4750 2034 4750 
Q 2731 4750 3128 4425 
Q 3525 4100 3525 3541 
Q 3525 3141 3298 2862 
Q 3072 2584 2669 2484 
Q 3125 2378 3379 2068 
Q 3634 1759 3634 1313 
Q 3634 634 3220 271 
Q 2806 -91 2034 -91 
Q 1263 -91 848 271 
Q 434 634 434 1313 
Q 434 1759 690 2068 
Q 947 2378 1403 2484 
z
M 1172 3481 
Q 1172 3119 1398 2916 
Q 1625 2713 2034 2713 
Q 2441 2713 2670 2916 
Q 2900 3119 2900 3481 
Q 2900 3844 2670 4047 
Q 2441 4250 2034 4250 
Q 1625 4250 1398 4047 
Q 1172 3844 1172 3481 
z
" transform="scale(0.015625)"/>
       </defs>
       <use xlink:href="#DejaVuSans-38"/>
      </g>
     </g>
    </g>
    <g id="xtick_3">
     <g id="line2d_3">
      <g>
       <use xlink:href="#m90687e6c94" x="186.89975" y="377.08" style="fill: #4b5563; stroke: #4b5563; stroke-width: 0.8"/>
      </g>
     </g>
     <g id="text_3">
      <!-- 15 -->
      <g style="fill: #4b5563" transform="translate(179.26475 393.198125) scale(0.12 -0.12)">
       <defs>
        <path id="DejaVuSans-35" d="M 691 4666 
L 3169 4666 
L 3169 4134 
L 1269 4134 
L 1269 2991 
Q 1406 3038 1543 3061 
Q 1681 3084 1819 3084 
Q 2600 3084 3056 2656 
Q 3513 2228 3513 1497 
Q 3513 744 3044 326 
Q 2575 -91 1722 -91 
Q 1428 -91 1123 -41 
Q 819 9 494 109 
L 494 744 
Q 775 591 1075 516 
Q 1375 441 1709 441 
Q 2250 441 2565 725 
Q 2881 1009 2881 1497 
Q 2881 1984 2565 2268 
Q 2250 2553 1709 2553 
Q 1456 2553 1204 2497 
Q 953 2441 691 2322 
L 691 4666 
z
" transform="scale(0.015625)"/>
       </defs>
       <use xlink:href="#DejaVuSans-31"/>
       <use xlink:href="#DejaVuSans-35" transform="translate(63.623047 0)"/>
      </g>
     </g>
    </g>
    <g id="xtick_4">
     <g id="line2d_4">
      <g>
       <use xlink:href="#m90687e6c94" x="248.3643" y="377.08" style="fill: #4b5563; stroke: #4b5563; stroke-width: 0.8"/>
      </g>
     </g>
     <g id="text_4">
      <!-- 22 -->
      <g style="fill: #4b5563" transform="translate(240.7293 393.198125) scale(0.12 -0.12)">
       <defs>
        <path id="DejaVuSans-32" d="M 1228 531 
L 3431 531 
L 3431 0 
L 469 0 
L 469 531 
Q 828 903 1448 1529 
Q 2069 2156 2228 2338 
Q 2531 2678 2651 2914 
Q 2772 3150 2772 3378 
Q 2772 3750 2511 3984 
Q 2250 4219 1831 4219 
Q 1534 4219 1204 4116 
Q 875 4013 500 3803 
L 500 4441 
Q 881 4594 1212 4672 
Q 1544 4750 1819 4750 
Q 2544 4750 2975 4387 
Q 3406 4025 3406 3419 
Q 3406 3131 3298 2873 
Q 3191 2616 2906 2266 
Q 2828 2175 2409 1742 
Q 1991 1309 1228 531 
z
" transform="scale(0.015625)"/>
       </defs>
       <use xlink:href="#DejaVuSans-32"/>
       <use xlink:href="#DejaVuSans-32" transform="translate(63.623047 0)"/>
      </g>
     </g>
    </g>
    <g id="xtick_5">
     <g id="line2d_5">
      <g>
       <use xlink:href="#m90687e6c94" x="309.82885" y="377.08" style="fill: #4b5563; stroke: #4b5563; stroke-width: 0.8"/>
      </g>
     </g>
     <g id="text_5">
      <!-- 29 -->
      <g style="fill: #4b5563" transform="translate(302.19385 393.198125) scale(0.12 -0.12)">
       <defs>
        <path id="DejaVuSans-39" d="M 703 97 
L 703 672 
Q 941 559 1184 500 
Q 1428 441 1663 441 
Q 2288 441 2617 861 
Q 2947 1281 2994 2138 
Q 2813 1869 2534 1725 
Q 2256 1581 1919 1581 
Q 1219 1581 811 2004 
Q 403 2428 403 3163 
Q 403 3881 828 4315 
Q 1253 4750 1959 4750 
Q 2769 4750 3195 4129 
Q 3622 3509 3622 2328 
Q 3622 1225 3098 567 
Q 2575 -91 1691 -91 
Q 1453 -91 1209 -44 
Q 966 3 703 97 
z
M 1959 2075 
Q 2384 2075 2632 2365 
Q 2881 2656 2881 3163 
Q 2881 3666 2632 3958 
Q 2384 4250 1959 4250 
Q 1534 4250 1286 3958 
Q 1038 3666 1038 3163 
Q 1038 2656 1286 2365 
Q 1534 2075 1959 2075 
z
" transform="scale(0.015625)"/>
       </defs>
       <use xlink:href="#DejaVuSans-32"/>
       <use xlink:href="#DejaVuSans-39" transform="translate(63.623047 0)"/>
      </g>
     </g>
    </g>
    <g id="xtick_6">
     <g id="line2d_6">
      <g>
       <use xlink:href="#m90687e6c94" x="371.2934" y="377.08" style="fill: #4b5563; stroke: #4b5563; stroke-width: 0.8"/>
      </g>
     </g>
     <g id="text_6">
      <!-- 36 -->
      <g style="fill: #4b5563" transform="translate(363.6584 393.198125) scale(0.12 -0.12)">
       <defs>
        <path id="DejaVuSans-33" d="M 2597 2516 
Q 3050 2419 3304 2112 
Q 3559 1806 3559 1356 
Q 3559 666 3084 287 
Q 2609 -91 1734 -91 
Q 1441 -91 1130 -33 
Q 819 25 488 141 
L 488 750 
Q 750 597 1062 519 
Q 1375 441 1716 441 
Q 2309 441 2620 675 
Q 2931 909 2931 1356 
Q 2931 1769 2642 2001 
Q 2353 2234 1838 2234 
L 1294 2234 
L 1294 2753 
L 1863 2753 
Q 2328 2753 2575 2939 
Q 2822 3125 2822 3475 
Q 2822 3834 2567 4026 
Q 2313 4219 1838 4219 
Q 1578 4219 1281 4162 
Q 984 4106 628 3988 
L 628 4550 
Q 988 4650 1302 4700 
Q 1616 4750 1894 4750 
Q 2613 4750 3031 4423 
Q 3450 4097 3450 3541 
Q 3450 3153 3228 2886 
Q 3006 2619 2597 2516 
z
" transform="scale(0.015625)"/>
        <path id="DejaVuSans-36" d="M 2113 2584 
Q 1688 2584 1439 2293 
Q 1191 2003 1191 1497 
Q 1191 994 1439 701 
Q 1688 409 2113 409 
Q 2538 409 2786 701 
Q 3034 994 3034 1497 
Q 3034 2003 2786 2293 
Q 2538 2584 2113 2584 
z
M 3366 4563 
L 3366 3988 
Q 3128 4100 2886 4159 
Q 2644 4219 2406 4219 
Q 1781 4219 1451 3797 
Q 1122 3375 1075 2522 
Q 1259 2794 1537 2939 
Q 1816 3084 2150 3084 
Q 2853 3084 3261 2657 
Q 3669 2231 3669 1497 
Q 3669 778 3244 343 
Q 2819 -91 2113 -91 
Q 1303 -91 875 529 
Q 447 1150 447 2328 
Q 447 3434 972 4092 
Q 1497 4750 2381 4750 
Q 2619 4750 2861 4703 
Q 3103 4656 3366 4563 
z
" transform="scale(0.015625)"/>
       </defs>
       <use xlink:href="#DejaVuSans-33"/>
       <use xlink:href="#DejaVuSans-36" transform="translate(63.623047 0)"/>
      </g>
     </g>
    </g>
    <g id="xtick_7">
     <g id="line2d_7">
      <g>
       <use xlink:href="#m90687e6c94" x="432.75795" y="377.08" style="fill: #4b5563; stroke: #4b5563; stroke-width: 0.8"/>
      </g>
     </g>
     <g id="text_7">
      <!-- 43 -->
      <g style="fill: #4b5563" transform="translate(425.12295 393.198125) scale(0.12 -0.12)">
       <defs>
        <path id="DejaVuSans-34" d="M 2419 4116 
L 825 1625 
L 2419 1625 
L 2419 4116 
z
M 2253 4666 
L 3047 4666 
L 3047 1625 
L 3713 1625 
L 3713 1100 
L 3047 1100 
L 3047 0 
L 2419 0 
L 2419 1100 
L 313 1100 
L 313 1709 
L 2253 4666 
z
" transform="scale(0.015625)"/>
       </defs>
       <use xlink:href="#DejaVuSans-34"/>
       <use xlink:href="#DejaVuSans-33" transform="translate(63.623047 0)"/>
      </g>
     </g>
    </g>
    <g id="xtick_8">
     <g id="line2d_8">
      <g>
       <use xlink:href="#m90687e6c94" x="494.2225" y="377.08" style="fill: #4b5563; stroke: #4b5563; stroke-width: 0.8"/>
      </g>
     </g>
     <g id="text_8">
      <!-- 50 -->
      <g style="fill: #4b5563" transform="translate(486.5875 393.198125) scale(0.12 -0.12)">
       <defs>
        <path id="DejaVuSans-30" d="M 2034 4250 
Q 1547 4250 1301 3770 
Q 1056 3291 1056 2328 
Q 1056 1369 1301 889 
Q 1547 409 2034 409 
Q 2525 409 2770 889 
Q 3016 1369 3016 2328 
Q 3016 3291 2770 3770 
Q 2525 4250 2034 4250 
z
M 2034 4750 
Q 2819 4750 3233 4129 
Q 3647 3509 3647 2328 
Q 3647 1150 3233 529 
Q 2819 -91 2034 -91 
Q 1250 -91 836 529 
Q 422 1150 422 2328 
Q 422 3509 836 4129 
Q 1250 4750 2034 4750 
z
" transform="scale(0.015625)"/>
       </defs>
       <use xlink:href="#DejaVuSans-35"/>
       <use xlink:href="#DejaVuSans-30" transform="translate(63.623047 0)"/>
      </g>
     </g>
    </g>
    <g id="xtick_9">
     <g id="line2d_9">
      <g>
       <use xlink:href="#m90687e6c94" x="555.68705" y="377.08" style="fill: #4b5563; stroke: #4b5563; stroke-width: 0.8"/>
      </g>
     </g>
     <g id="text_9">
      <!-- 57 -->
      <g style="fill: #4b5563" transform="translate(548.05205 393.198125) scale(0.12 -0.12)">
       <defs>
        <path id="DejaVuSans-37" d="M 525 4666 
L 3525 4666 
L 3525 4397 
L 1831 0 
L 1172 0 
L 2766 4134 
L 525 4134 
L 525 4666 
z
" transform="scale(0.015625)"/>
       </defs>
       <use xlink:href="#DejaVuSans-35"/>
       <use xlink:href="#DejaVuSans-37" transform="translate(63.623047 0)"/>
      </g>
     </g>
    </g>
    <g id="xtick_10">
     <g id="line2d_10">
      <g>
       <use xlink:href="#m90687e6c94" x="617.1516" y="377.08" style="fill: #4b5563; stroke: #4b5563; stroke-width: 0.8"/>
      </g>
     </g>
     <g id="text_10">
      <!-- 64 -->
      <g style="fill: #4b5563" transform="translate(609.5166 393.198125) scale(0.12 -0.12)">
       <use xlink:href="#DejaVuSans-36"/>
       <use xlink:href="#DejaVuSans-34" transform="translate(63.623047 0)"/>
      </g>
     </g>
    </g>
    <g id="xtick_11">
     <g id="line2d_11">
      <g>
       <use xlink:href="#m90687e6c94" x="696.17745" y="377.08" style="fill: #4b5563; stroke: #4b5563; stroke-width: 0.8"/>
      </g>
     </g>
     <g id="text_11">
      <!-- 73 -->
      <g style="fill: #4b5563" transform="translate(688.54245 393.198125) scale(0.12 -0.12)">
       <use xlink:href="#DejaVuSans-37"/>
       <use xlink:href="#DejaVuSans-33" transform="translate(63.623047 0)"/>
      </g>
     </g>
    </g>
    <g id="xtick_12">
     <g id="line2d_12">
      <g>
       <use xlink:href="#m90687e6c94" x="783.98395" y="377.08" style="fill: #4b5563; stroke: #4b5563; stroke-width: 0.8"/>
      </g>
     </g>
     <g id="text_12">
      <!-- 83 -->
      <g style="fill: #4b5563" transform="translate(776.34895 393.198125) scale(0.12 -0.12)">
       <use xlink:href="#DejaVuSans-38"/>
       <use xlink:href="#DejaVuSans-33" transform="translate(63.623047 0)"/>
      </g>
     </g>
    </g>
    <g id="xtick_13">
     <g id="line2d_13">
      <g>
       <use xlink:href="#m90687e6c94" x="933.255" y="377.08" style="fill: #4b5563; stroke: #4b5563; stroke-width: 0.8"/>
      </g>
     </g>
     <g id="text_13">
      <!-- 100 -->
      <g style="fill: #4b5563" transform="translate(921.8025 393.198125) scale(0.12 -0.12)">
       <use xlink:href="#DejaVuSans-31"/>
       <use xlink:href="#DejaVuSans-30" transform="translate(63.623047 0)"/>
       <use xlink:href="#DejaVuSans-30" transform="translate(127.246094 0)"/>
      </g>
     </g>
    </g>
    <g id="text_14">
     <!-- Exact match length (tokens) -->
     <g style="fill: #111118" transform="translate(380.79125 411.85125) scale(0.16 -0.16)">
      <defs>
       <path id="DejaVuSans-45" d="M 628 4666 
L 3578 4666 
L 3578 4134 
L 1259 4134 
L 1259 2753 
L 3481 2753 
L 3481 2222 
L 1259 2222 
L 1259 531 
L 3634 531 
L 3634 0 
L 628 0 
L 628 4666 
z
" transform="scale(0.015625)"/>
       <path id="DejaVuSans-78" d="M 3513 3500 
L 2247 1797 
L 3578 0 
L 2900 0 
L 1881 1375 
L 863 0 
L 184 0 
L 1544 1831 
L 300 3500 
L 978 3500 
L 1906 2253 
L 2834 3500 
L 3513 3500 
z
" transform="scale(0.015625)"/>
       <path id="DejaVuSans-61" d="M 2194 1759 
Q 1497 1759 1228 1600 
Q 959 1441 959 1056 
Q 959 750 1161 570 
Q 1363 391 1709 391 
Q 2188 391 2477 730 
Q 2766 1069 2766 1631 
L 2766 1759 
L 2194 1759 
z
M 3341 1997 
L 3341 0 
L 2766 0 
L 2766 531 
Q 2569 213 2275 61 
Q 1981 -91 1556 -91 
Q 1019 -91 701 211 
Q 384 513 384 1019 
Q 384 1609 779 1909 
Q 1175 2209 1959 2209 
L 2766 2209 
L 2766 2266 
Q 2766 2663 2505 2880 
Q 2244 3097 1772 3097 
Q 1472 3097 1187 3025 
Q 903 2953 641 2809 
L 641 3341 
Q 956 3463 1253 3523 
Q 1550 3584 1831 3584 
Q 2591 3584 2966 3190 
Q 3341 2797 3341 1997 
z
" transform="scale(0.015625)"/>
       <path id="DejaVuSans-63" d="M 3122 3366 
L 3122 2828 
Q 2878 2963 2633 3030 
Q 2388 3097 2138 3097 
Q 1578 3097 1268 2742 
Q 959 2388 959 1747 
Q 959 1106 1268 751 
Q 1578 397 2138 397 
Q 2388 397 2633 464 
Q 2878 531 3122 666 
L 3122 134 
Q 2881 22 2623 -34 
Q 2366 -91 2075 -91 
Q 1284 -91 818 406 
Q 353 903 353 1747 
Q 353 2603 823 3093 
Q 1294 3584 2113 3584 
Q 2378 3584 2631 3529 
Q 2884 3475 3122 3366 
z
" transform="scale(0.015625)"/>
       <path id="DejaVuSans-74" d="M 1172 4494 
L 1172 3500 
L 2356 3500 
L 2356 3053 
L 1172 3053 
L 1172 1153 
Q 1172 725 1289 603 
Q 1406 481 1766 481 
L 2356 481 
L 2356 0 
L 1766 0 
Q 1100 0 847 248 
Q 594 497 594 1153 
L 594 3053 
L 172 3053 
L 172 3500 
L 594 3500 
L 594 4494 
L 1172 4494 
z
" transform="scale(0.015625)"/>
       <path id="DejaVuSans-20" transform="scale(0.015625)"/>
       <path id="DejaVuSans-6d" d="M 3328 2828 
Q 3544 3216 3844 3400 
Q 4144 3584 4550 3584 
Q 5097 3584 5394 3201 
Q 5691 2819 5691 2113 
L 5691 0 
L 5113 0 
L 5113 2094 
Q 5113 2597 4934 2840 
Q 4756 3084 4391 3084 
Q 3944 3084 3684 2787 
Q 3425 2491 3425 1978 
L 3425 0 
L 2847 0 
L 2847 2094 
Q 2847 2600 2669 2842 
Q 2491 3084 2119 3084 
Q 1678 3084 1418 2786 
Q 1159 2488 1159 1978 
L 1159 0 
L 581 0 
L 581 3500 
L 1159 3500 
L 1159 2956 
Q 1356 3278 1631 3431 
Q 1906 3584 2284 3584 
Q 2666 3584 2933 3390 
Q 3200 3197 3328 2828 
z
" transform="scale(0.015625)"/>
       <path id="DejaVuSans-68" d="M 3513 2113 
L 3513 0 
L 2938 0 
L 2938 2094 
Q 2938 2591 2744 2837 
Q 2550 3084 2163 3084 
Q 1697 3084 1428 2787 
Q 1159 2491 1159 1978 
L 1159 0 
L 581 0 
L 581 4863 
L 1159 4863 
L 1159 2956 
Q 1366 3272 1645 3428 
Q 1925 3584 2291 3584 
Q 2894 3584 3203 3211 
Q 3513 2838 3513 2113 
z
" transform="scale(0.015625)"/>
       <path id="DejaVuSans-6c" d="M 603 4863 
L 1178 4863 
L 1178 0 
L 603 0 
L 603 4863 
z
" transform="scale(0.015625)"/>
       <path id="DejaVuSans-65" d="M 3597 1894 
L 3597 1613 
L 953 1613 
Q 991 1019 1311 708 
Q 1631 397 2203 397 
Q 2534 397 2845 478 
Q 3156 559 3463 722 
L 3463 178 
Q 3153 47 2828 -22 
Q 2503 -91 2169 -91 
Q 1331 -91 842 396 
Q 353 884 353 1716 
Q 353 2575 817 3079 
Q 1281 3584 2069 3584 
Q 2775 3584 3186 3129 
Q 3597 2675 3597 1894 
z
M 3022 2063 
Q 3016 2534 2758 2815 
Q 2500 3097 2075 3097 
Q 1594 3097 1305 2825 
Q 1016 2553 972 2059 
L 3022 2063 
z
" transform="scale(0.015625)"/>
       <path id="DejaVuSans-6e" d="M 3513 2113 
L 3513 0 
L 2938 0 
L 2938 2094 
Q 2938 2591 2744 2837 
Q 2550 3084 2163 3084 
Q 1697 3084 1428 2787 
Q 1159 2491 1159 1978 
L 1159 0 
L 581 0 
L 581 3500 
L 1159 3500 
L 1159 2956 
Q 1366 3272 1645 3428 
Q 1925 3584 2291 3584 
Q 2894 3584 3203 3211 
Q 3513 2838 3513 2113 
z
" transform="scale(0.015625)"/>
       <path id="DejaVuSans-67" d="M 2906 1791 
Q 2906 2416 2648 2759 
Q 2391 3103 1925 3103 
Q 1463 3103 1205 2759 
Q 947 2416 947 1791 
Q 947 1169 1205 825 
Q 1463 481 1925 481 
Q 2391 481 2648 825 
Q 2906 1169 2906 1791 
z
M 3481 434 
Q 3481 -459 3084 -895 
Q 2688 -1331 1869 -1331 
Q 1566 -1331 1297 -1286 
Q 1028 -1241 775 -1147 
L 775 -588 
Q 1028 -725 1275 -790 
Q 1522 -856 1778 -856 
Q 2344 -856 2625 -561 
Q 2906 -266 2906 331 
L 2906 616 
Q 2728 306 2450 153 
Q 2172 0 1784 0 
Q 1141 0 747 490 
Q 353 981 353 1791 
Q 353 2603 747 3093 
Q 1141 3584 1784 3584 
Q 2172 3584 2450 3431 
Q 2728 3278 2906 2969 
L 2906 3500 
L 3481 3500 
L 3481 434 
z
" transform="scale(0.015625)"/>
       <path id="DejaVuSans-28" d="M 1984 4856 
Q 1566 4138 1362 3434 
Q 1159 2731 1159 2009 
Q 1159 1288 1364 580 
Q 1569 -128 1984 -844 
L 1484 -844 
Q 1016 -109 783 600 
Q 550 1309 550 2009 
Q 550 2706 781 3412 
Q 1013 4119 1484 4856 
L 1984 4856 
z
" transform="scale(0.015625)"/>
       <path id="DejaVuSans-6f" d="M 1959 3097 
Q 1497 3097 1228 2736 
Q 959 2375 959 1747 
Q 959 1119 1226 758 
Q 1494 397 1959 397 
Q 2419 397 2687 759 
Q 2956 1122 2956 1747 
Q 2956 2369 2687 2733 
Q 2419 3097 1959 3097 
z
M 1959 3584 
Q 2709 3584 3137 3096 
Q 3566 2609 3566 1747 
Q 3566 888 3137 398 
Q 2709 -91 1959 -91 
Q 1206 -91 779 398 
Q 353 888 353 1747 
Q 353 2609 779 3096 
Q 1206 3584 1959 3584 
z
" transform="scale(0.015625)"/>
       <path id="DejaVuSans-6b" d="M 581 4863 
L 1159 4863 
L 1159 1991 
L 2875 3500 
L 3609 3500 
L 1753 1863 
L 3688 0 
L 2938 0 
L 1159 1709 
L 1159 0 
L 581 0 
L 581 4863 
z
" transform="scale(0.015625)"/>
       <path id="DejaVuSans-73" d="M 2834 3397 
L 2834 2853 
Q 2591 2978 2328 3040 
Q 2066 3103 1784 3103 
Q 1356 3103 1142 2972 
Q 928 2841 928 2578 
Q 928 2378 1081 2264 
Q 1234 2150 1697 2047 
L 1894 2003 
Q 2506 1872 2764 1633 
Q 3022 1394 3022 966 
Q 3022 478 2636 193 
Q 2250 -91 1575 -91 
Q 1294 -91 989 -36 
Q 684 19 347 128 
L 347 722 
Q 666 556 975 473 
Q 1284 391 1588 391 
Q 1994 391 2212 530 
Q 2431 669 2431 922 
Q 2431 1156 2273 1281 
Q 2116 1406 1581 1522 
L 1381 1569 
Q 847 1681 609 1914 
Q 372 2147 372 2553 
Q 372 3047 722 3315 
Q 1072 3584 1716 3584 
Q 2034 3584 2315 3537 
Q 2597 3491 2834 3397 
z
" transform="scale(0.015625)"/>
       <path id="DejaVuSans-29" d="M 513 4856 
L 1013 4856 
Q 1481 4119 1714 3412 
Q 1947 2706 1947 2009 
Q 1947 1309 1714 600 
Q 1481 -109 1013 -844 
L 513 -844 
Q 928 -128 1133 580 
Q 1338 1288 1338 2009 
Q 1338 2731 1133 3434 
Q 928 4138 513 4856 
z
" transform="scale(0.015625)"/>
      </defs>
      <use xlink:href="#DejaVuSans-45"/>
      <use xlink:href="#DejaVuSans-78" transform="translate(63.183594 0)"/>
      <use xlink:href="#DejaVuSans-61" transform="translate(122.363281 0)"/>
      <use xlink:href="#DejaVuSans-63" transform="translate(183.642578 0)"/>
      <use xlink:href="#DejaVuSans-74" transform="translate(238.623047 0)"/>
      <use xlink:href="#DejaVuSans-20" transform="translate(277.832031 0)"/>
      <use xlink:href="#DejaVuSans-6d" transform="translate(309.619141 0)"/>
      <use xlink:href="#DejaVuSans-61" transform="translate(407.03125 0)"/>
      <use xlink:href="#DejaVuSans-74" transform="translate(468.310547 0)"/>
      <use xlink:href="#DejaVuSans-63" transform="translate(507.519531 0)"/>
      <use xlink:href="#DejaVuSans-68" transform="translate(562.5 0)"/>
      <use xlink:href="#DejaVuSans-20" transform="translate(625.878906 0)"/>
      <use xlink:href="#DejaVuSans-6c" transform="translate(657.666016 0)"/>
      <use xlink:href="#DejaVuSans-65" transform="translate(685.449219 0)"/>
      <use xlink:href="#DejaVuSans-6e" transform="translate(746.972656 0)"/>
      <use xlink:href="#DejaVuSans-67" transform="translate(810.351562 0)"/>
      <use xlink:href="#DejaVuSans-74" transform="translate(873.828125 0)"/>
      <use xlink:href="#DejaVuSans-68" transform="translate(913.037109 0)"/>
      <use xlink:href="#DejaVuSans-20" transform="translate(976.416016 0)"/>
      <use xlink:href="#DejaVuSans-28" transform="translate(1008.203125 0)"/>
      <use xlink:href="#DejaVuSans-74" transform="translate(1047.216797 0)"/>
      <use xlink:href="#DejaVuSans-6f" transform="translate(1086.425781 0)"/>
      <use xlink:href="#DejaVuSans-6b" transform="translate(1147.607422 0)"/>
      <use xlink:href="#DejaVuSans-65" transform="translate(1201.892578 0)"/>
      <use xlink:href="#DejaVuSans-6e" transform="translate(1263.416016 0)"/>
      <use xlink:href="#DejaVuSans-73" transform="translate(1326.794922 0)"/>
      <use xlink:href="#DejaVuSans-29" transform="translate(1378.894531 0)"/>
     </g>
    </g>
   </g>
   <g id="matplotlib.axis_2">
    <g id="ytick_1">
     <g id="line2d_14">
      <path d="M 55.19 377.08 
L 933.255 377.08 
" clip-path="url(#p0f0c2b29b7)" style="fill: none; stroke: #e5e7eb; stroke-width: 0.8; stroke-linecap: square"/>
     </g>
     <g id="line2d_15">
      <defs>
       <path id="m04cd5f1077" d="M 0 0 
L -3.5 0 
" style="stroke: #4b5563; stroke-width: 0.8"/>
      </defs>
      <g>
       <use xlink:href="#m04cd5f1077" x="55.19" y="377.08" style="fill: #4b5563; stroke: #4b5563; stroke-width: 0.8"/>
      </g>
     </g>
     <g id="text_15">
      <!-- 0.0 -->
      <g style="fill: #4b5563" transform="translate(29.10625 381.639063) scale(0.12 -0.12)">
       <defs>
        <path id="DejaVuSans-2e" d="M 684 794 
L 1344 794 
L 1344 0 
L 684 0 
L 684 794 
z
" transform="scale(0.015625)"/>
       </defs>
       <use xlink:href="#DejaVuSans-30"/>
       <use xlink:href="#DejaVuSans-2e" transform="translate(63.623047 0)"/>
       <use xlink:href="#DejaVuSans-30" transform="translate(95.410156 0)"/>
      </g>
     </g>
    </g>
    <g id="ytick_2">
     <g id="line2d_16">
      <path d="M 55.19 304.832 
L 933.255 304.832 
" clip-path="url(#p0f0c2b29b7)" style="fill: none; stroke: #e5e7eb; stroke-width: 0.8; stroke-linecap: square"/>
     </g>
     <g id="line2d_17">
      <g>
       <use xlink:href="#m04cd5f1077" x="55.19" y="304.832" style="fill: #4b5563; stroke: #4b5563; stroke-width: 0.8"/>
      </g>
     </g>
     <g id="text_16">
      <!-- 0.2 -->
      <g style="fill: #4b5563" transform="translate(29.10625 309.391062) scale(0.12 -0.12)">
       <use xlink:href="#DejaVuSans-30"/>
       <use xlink:href="#DejaVuSans-2e" transform="translate(63.623047 0)"/>
       <use xlink:href="#DejaVuSans-32" transform="translate(95.410156 0)"/>
      </g>
     </g>
    </g>
    <g id="ytick_3">
     <g id="line2d_18">
      <path d="M 55.19 232.584 
L 933.255 232.584 
" clip-path="url(#p0f0c2b29b7)" style="fill: none; stroke: #e5e7eb; stroke-width: 0.8; stroke-linecap: square"/>
     </g>
     <g id="line2d_19">
      <g>
       <use xlink:href="#m04cd5f1077" x="55.19" y="232.584" style="fill: #4b5563; stroke: #4b5563; stroke-width: 0.8"/>
      </g>
     </g>
     <g id="text_17">
      <!-- 0.4 -->
      <g style="fill: #4b5563" transform="translate(29.10625 237.143063) scale(0.12 -0.12)">
       <use xlink:href="#DejaVuSans-30"/>
       <use xlink:href="#DejaVuSans-2e" transform="translate(63.623047 0)"/>
       <use xlink:href="#DejaVuSans-34" transform="translate(95.410156 0)"/>
      </g>
     </g>
    </g>
    <g id="ytick_4">
     <g id="line2d_20">
      <path d="M 55.19 160.336 
L 933.255 160.336 
" clip-path="url(#p0f0c2b29b7)" style="fill: none; stroke: #e5e7eb; stroke-width: 0.8; stroke-linecap: square"/>
     </g>
     <g id="line2d_21">
      <g>
       <use xlink:href="#m04cd5f1077" x="55.19" y="160.336" style="fill: #4b5563; stroke: #4b5563; stroke-width: 0.8"/>
      </g>
     </g>
     <g id="text_18">
      <!-- 0.6 -->
      <g style="fill: #4b5563" transform="translate(29.10625 164.895062) scale(0.12 -0.12)">
       <use xlink:href="#DejaVuSans-30"/>
       <use xlink:href="#DejaVuSans-2e" transform="translate(63.623047 0)"/>
       <use xlink:href="#DejaVuSans-36" transform="translate(95.410156 0)"/>
      </g>
     </g>
    </g>
    <g id="ytick_5">
     <g id="line2d_22">
      <path d="M 55.19 88.088 
L 933.255 88.088 
" clip-path="url(#p0f0c2b29b7)" style="fill: none; stroke: #e5e7eb; stroke-width: 0.8; stroke-linecap: square"/>
     </g>
     <g id="line2d_23">
      <g>
       <use xlink:href="#m04cd5f1077" x="55.19" y="88.088" style="fill: #4b5563; stroke: #4b5563; stroke-width: 0.8"/>
      </g>
     </g>
     <g id="text_19">
      <!-- 0.8 -->
      <g style="fill: #4b5563" transform="translate(29.10625 92.647062) scale(0.12 -0.12)">
       <use xlink:href="#DejaVuSans-30"/>
       <use xlink:href="#DejaVuSans-2e" transform="translate(63.623047 0)"/>
       <use xlink:href="#DejaVuSans-38" transform="translate(95.410156 0)"/>
      </g>
     </g>
    </g>
    <g id="ytick_6">
     <g id="line2d_24">
      <path d="M 55.19 15.84 
L 933.255 15.84 
" clip-path="url(#p0f0c2b29b7)" style="fill: none; stroke: #e5e7eb; stroke-width: 0.8; stroke-linecap: square"/>
     </g>
     <g id="line2d_25">
      <g>
       <use xlink:href="#m04cd5f1077" x="55.19" y="15.84" style="fill: #4b5563; stroke: #4b5563; stroke-width: 0.8"/>
      </g>
     </g>
     <g id="text_20">
      <!-- 1.0 -->
      <g style="fill: #4b5563" transform="translate(29.10625 20.399063) scale(0.12 -0.12)">
       <use xlink:href="#DejaVuSans-31"/>
       <use xlink:href="#DejaVuSans-2e" transform="translate(63.623047 0)"/>
       <use xlink:href="#DejaVuSans-30" transform="translate(95.410156 0)"/>
      </g>
     </g>
    </g>
    <g id="text_21">
     <!-- Ratio -->
     <g style="fill: #111118" transform="translate(21.77875 216.995) rotate(-90) scale(0.16 -0.16)">
      <defs>
       <path id="DejaVuSans-52" d="M 2841 2188 
Q 3044 2119 3236 1894 
Q 3428 1669 3622 1275 
L 4263 0 
L 3584 0 
L 2988 1197 
Q 2756 1666 2539 1819 
Q 2322 1972 1947 1972 
L 1259 1972 
L 1259 0 
L 628 0 
L 628 4666 
L 2053 4666 
Q 2853 4666 3247 4331 
Q 3641 3997 3641 3322 
Q 3641 2881 3436 2590 
Q 3231 2300 2841 2188 
z
M 1259 4147 
L 1259 2491 
L 2053 2491 
Q 2509 2491 2742 2702 
Q 2975 2913 2975 3322 
Q 2975 3731 2742 3939 
Q 2509 4147 2053 4147 
L 1259 4147 
z
" transform="scale(0.015625)"/>
       <path id="DejaVuSans-69" d="M 603 3500 
L 1178 3500 
L 1178 0 
L 603 0 
L 603 3500 
z
M 603 4863 
L 1178 4863 
L 1178 4134 
L 603 4134 
L 603 4863 
z
" transform="scale(0.015625)"/>
      </defs>
      <use xlink:href="#DejaVuSans-52"/>
      <use xlink:href="#DejaVuSans-61" transform="translate(67.232422 0)"/>
      <use xlink:href="#DejaVuSans-74" transform="translate(128.511719 0)"/>
      <use xlink:href="#DejaVuSans-69" transform="translate(167.720703 0)"/>
      <use xlink:href="#DejaVuSans-6f" transform="translate(195.503906 0)"/>
     </g>
    </g>
   </g>
   <g id="line2d_26">
    <path d="M 63.97065 377.08 
L 72.7513 377.08 
L 81.53195 377.08 
L 90.3126 257.142609 
L 99.09325 224.302609 
L 107.8739 314.255652 
L 116.65455 364.229565 
L 125.4352 367.085217 
L 134.21585 374.224348 
L 142.9965 377.08 
L 151.77715 377.08 
L 160.5578 377.08 
L 169.33845 377.08 
L 178.1191 377.08 
L 186.89975 377.08 
L 195.6804 377.08 
L 204.46105 377.08 
L 213.2417 377.08 
L 222.02235 377.08 
L 230.803 377.08 
L 239.58365 377.08 
L 248.3643 377.08 
L 257.14495 377.08 
L 265.9256 377.08 
L 274.70625 377.08 
L 283.4869 377.08 
L 292.26755 377.08 
L 301.0482 377.08 
L 309.82885 377.08 
L 318.6095 377.08 
L 327.39015 377.08 
L 336.1708 377.08 
L 344.95145 377.08 
L 353.7321 377.08 
L 362.51275 377.08 
L 371.2934 377.08 
L 380.07405 377.08 
L 388.8547 377.08 
L 397.63535 377.08 
L 406.416 377.08 
L 415.19665 377.08 
L 423.9773 377.08 
L 432.75795 377.08 
L 441.5386 377.08 
L 450.31925 377.08 
L 459.0999 377.08 
L 467.88055 377.08 
L 476.6612 377.08 
L 485.44185 377.08 
L 494.2225 377.08 
L 503.00315 377.08 
L 511.7838 377.08 
L 520.56445 377.08 
L 529.3451 377.08 
L 538.12575 377.08 
L 546.9064 377.08 
L 555.68705 377.08 
L 564.4677 377.08 
L 573.24835 377.08 
L 582.029 377.08 
L 590.80965 377.08 
L 599.5903 377.08 
L 608.37095 377.08 
L 617.1516 377.08 
L 625.93225 377.08 
L 634.7129 377.08 
L 643.49355 377.08 
L 661.05485 377.08 
L 669.8355 377.08 
L 687.3968 377.08 
L 696.17745 377.08 
L 704.9581 377.08 
L 722.5194 377.08 
L 748.86135 377.08 
L 757.642 377.08 
L 766.42265 377.08 
L 775.2033 377.08 
L 783.98395 377.08 
L 792.7646 377.08 
L 836.66785 377.08 
L 863.0098 377.08 
L 898.1324 377.08 
L 956.44 377.08 
" clip-path="url(#p0f0c2b29b7)" style="fill: none; stroke: #dc2626; stroke-opacity: 0.2; stroke-width: 0.9; stroke-linecap: square"/>
   </g>
   <g id="line2d_27">
    <path d="M 63.97065 359.946087 
L 72.7513 338.120745 
L 81.53195 329.145839 
L 90.3126 327.310062 
L 99.09325 325.882236 
L 107.8739 325.474286 
L 116.65455 325.474286 
L 125.4352 342.608199 
L 134.21585 364.43354 
L 142.9965 373.408447 
L 151.77715 375.244224 
L 160.5578 376.67205 
L 169.33845 377.08 
L 178.1191 377.08 
L 186.89975 377.08 
L 195.6804 377.08 
L 204.46105 377.08 
L 213.2417 377.08 
L 222.02235 377.08 
L 230.803 377.08 
L 239.58365 377.08 
L 248.3643 377.08 
L 257.14495 377.08 
L 265.9256 377.08 
L 274.70625 377.08 
L 283.4869 377.08 
L 292.26755 377.08 
L 301.0482 377.08 
L 309.82885 377.08 
L 318.6095 377.08 
L 327.39015 377.08 
L 336.1708 377.08 
L 344.95145 377.08 
L 353.7321 377.08 
L 362.51275 377.08 
L 371.2934 377.08 
L 380.07405 377.08 
L 388.8547 377.08 
L 397.63535 377.08 
L 406.416 377.08 
L 415.19665 377.08 
L 423.9773 377.08 
L 432.75795 377.08 
L 441.5386 377.08 
L 450.31925 377.08 
L 459.0999 377.08 
L 467.88055 377.08 
L 476.6612 377.08 
L 485.44185 377.08 
L 494.2225 377.08 
L 503.00315 377.08 
L 511.7838 377.08 
L 520.56445 377.08 
L 529.3451 377.08 
L 538.12575 377.08 
L 546.9064 377.08 
L 555.68705 377.08 
L 564.4677 377.08 
L 573.24835 377.08 
L 582.029 377.08 
L 590.80965 377.08 
L 599.5903 377.08 
L 608.37095 377.08 
L 617.1516 377.08 
L 625.93225 377.08 
L 634.7129 377.08 
L 643.49355 377.08 
L 661.05485 377.08 
L 669.8355 377.08 
L 687.3968 377.08 
L 696.17745 377.08 
L 704.9581 377.08 
L 722.5194 377.08 
L 748.86135 377.08 
L 757.642 377.08 
L 766.42265 377.08 
L 775.2033 377.08 
L 783.98395 377.08 
L 792.7646 377.08 
L 836.66785 377.08 
L 863.0098 377.08 
L 898.1324 377.08 
L 956.44 377.08 
" clip-path="url(#p0f0c2b29b7)" style="fill: none; stroke: #dc2626; stroke-width: 2.2; stroke-linecap: square"/>
   </g>
   <g id="line2d_28">
    <path d="M 63.97065 377.08 
L 72.7513 377.08 
L 81.53195 377.08 
L 90.3126 256.666667 
L 99.09325 315.274926 
L 107.8739 358.96472 
L 116.65455 374.948791 
L 125.4352 364.292743 
L 134.21585 351.505487 
L 142.9965 346.177463 
L 151.77715 344.046254 
L 160.5578 368.555162 
L 169.33845 367.489557 
L 178.1191 372.817581 
L 186.89975 357.899115 
L 195.6804 373.883186 
L 204.46105 374.948791 
L 213.2417 376.014395 
L 222.02235 374.948791 
L 230.803 377.08 
L 239.58365 377.08 
L 248.3643 376.014395 
L 257.14495 374.948791 
L 265.9256 377.08 
L 274.70625 377.08 
L 283.4869 377.08 
L 292.26755 377.08 
L 301.0482 377.08 
L 309.82885 377.08 
L 318.6095 377.08 
L 327.39015 377.08 
L 336.1708 377.08 
L 344.95145 377.08 
L 353.7321 377.08 
L 362.51275 377.08 
L 371.2934 377.08 
L 380.07405 377.08 
L 388.8547 377.08 
L 397.63535 377.08 
L 406.416 377.08 
L 415.19665 377.08 
L 423.9773 377.08 
L 432.75795 377.08 
L 441.5386 377.08 
L 450.31925 377.08 
L 459.0999 377.08 
L 467.88055 374.948791 
L 476.6612 377.08 
L 485.44185 377.08 
L 494.2225 377.08 
L 503.00315 377.08 
L 511.7838 377.08 
L 520.56445 377.08 
L 529.3451 377.08 
L 538.12575 377.08 
L 546.9064 377.08 
L 555.68705 377.08 
L 564.4677 377.08 
L 573.24835 377.08 
L 582.029 377.08 
L 590.80965 377.08 
L 599.5903 377.08 
L 608.37095 377.08 
L 617.1516 377.08 
L 625.93225 377.08 
L 634.7129 376.014395 
L 643.49355 377.08 
L 661.05485 377.08 
L 669.8355 377.08 
L 687.3968 377.08 
L 696.17745 377.08 
L 704.9581 377.08 
L 722.5194 377.08 
L 748.86135 377.08 
L 757.642 377.08 
L 766.42265 377.08 
L 775.2033 377.08 
L 783.98395 377.08 
L 792.7646 377.08 
L 836.66785 377.08 
L 863.0098 377.08 
L 898.1324 377.08 
L 956.44 377.08 
" clip-path="url(#p0f0c2b29b7)" style="fill: none; stroke: #1d4ed8; stroke-opacity: 0.2; stroke-width: 0.9; stroke-linecap: square"/>
   </g>
   <g id="line2d_29">
    <path d="M 63.97065 359.878095 
L 72.7513 351.048799 
L 81.53195 348.460902 
L 90.3126 348.156443 
L 99.09325 346.329692 
L 107.8739 342.676191 
L 116.65455 338.261542 
L 125.4352 350.74434 
L 134.21585 358.355803 
L 142.9965 359.573637 
L 151.77715 359.269178 
L 160.5578 358.355803 
L 169.33845 361.552617 
L 178.1191 365.662807 
L 186.89975 370.229684 
L 195.6804 371.143059 
L 204.46105 372.513123 
L 213.2417 373.12204 
L 222.02235 375.709937 
L 230.803 375.862166 
L 239.58365 376.166624 
L 248.3643 376.318854 
L 257.14495 376.623312 
L 265.9256 376.623312 
L 274.70625 376.623312 
L 283.4869 376.775542 
L 292.26755 377.08 
L 301.0482 377.08 
L 309.82885 377.08 
L 318.6095 377.08 
L 327.39015 377.08 
L 336.1708 377.08 
L 344.95145 377.08 
L 353.7321 377.08 
L 362.51275 377.08 
L 371.2934 377.08 
L 380.07405 377.08 
L 388.8547 377.08 
L 397.63535 377.08 
L 406.416 377.08 
L 415.19665 377.08 
L 423.9773 377.08 
L 432.75795 377.08 
L 441.5386 376.775542 
L 450.31925 376.775542 
L 459.0999 376.775542 
L 467.88055 376.775542 
L 476.6612 376.775542 
L 485.44185 376.775542 
L 494.2225 376.775542 
L 503.00315 377.08 
L 511.7838 377.08 
L 520.56445 377.08 
L 529.3451 377.08 
L 538.12575 377.08 
L 546.9064 377.08 
L 555.68705 377.08 
L 564.4677 377.08 
L 573.24835 377.08 
L 582.029 377.08 
L 590.80965 377.08 
L 599.5903 377.08 
L 608.37095 376.927771 
L 617.1516 376.927771 
L 625.93225 376.927771 
L 634.7129 376.927771 
L 643.49355 376.927771 
L 661.05485 376.927771 
L 669.8355 376.927771 
L 687.3968 377.08 
L 696.17745 377.08 
L 704.9581 377.08 
L 722.5194 377.08 
L 748.86135 377.08 
L 757.642 377.08 
L 766.42265 377.08 
L 775.2033 377.08 
L 783.98395 377.08 
L 792.7646 377.08 
L 836.66785 377.08 
L 863.0098 377.08 
L 898.1324 377.08 
L 956.44 377.08 
" clip-path="url(#p0f0c2b29b7)" style="fill: none; stroke: #1d4ed8; stroke-width: 2.2; stroke-linecap: square"/>
   </g>
   <g id="line2d_30">
    <path d="M 63.97065 377.08 
L 72.7513 377.08 
L 81.53195 377.08 
L 90.3126 288.178648 
L 99.09325 368.941144 
L 107.8739 364.558683 
L 116.65455 307.58669 
L 125.4352 299.447834 
L 134.21585 335.133588 
L 142.9965 348.28097 
L 151.77715 360.176222 
L 160.5578 367.689012 
L 169.33845 370.819341 
L 178.1191 376.453934 
L 186.89975 377.08 
L 195.6804 376.453934 
L 204.46105 377.08 
L 213.2417 377.08 
L 222.02235 377.08 
L 230.803 377.08 
L 239.58365 377.08 
L 248.3643 377.08 
L 257.14495 377.08 
L 265.9256 377.08 
L 274.70625 377.08 
L 283.4869 377.08 
L 292.26755 377.08 
L 301.0482 377.08 
L 309.82885 377.08 
L 318.6095 377.08 
L 327.39015 377.08 
L 336.1708 377.08 
L 344.95145 377.08 
L 353.7321 377.08 
L 362.51275 377.08 
L 371.2934 377.08 
L 380.07405 377.08 
L 388.8547 377.08 
L 397.63535 377.08 
L 406.416 377.08 
L 415.19665 377.08 
L 423.9773 377.08 
L 432.75795 377.08 
L 441.5386 377.08 
L 450.31925 377.08 
L 459.0999 377.08 
L 467.88055 377.08 
L 476.6612 377.08 
L 485.44185 377.08 
L 494.2225 377.08 
L 503.00315 377.08 
L 511.7838 377.08 
L 520.56445 377.08 
L 529.3451 377.08 
L 538.12575 377.08 
L 546.9064 377.08 
L 555.68705 377.08 
L 564.4677 377.08 
L 573.24835 377.08 
L 582.029 377.08 
L 590.80965 377.08 
L 599.5903 377.08 
L 608.37095 377.08 
L 617.1516 377.08 
L 625.93225 377.08 
L 634.7129 377.08 
L 643.49355 377.08 
L 661.05485 377.08 
L 669.8355 377.08 
L 687.3968 377.08 
L 696.17745 377.08 
L 704.9581 377.08 
L 722.5194 377.08 
L 748.86135 377.08 
L 757.642 377.08 
L 766.42265 377.08 
L 775.2033 377.08 
L 783.98395 377.08 
L 792.7646 377.08 
L 836.66785 377.08 
L 863.0098 377.08 
L 898.1324 377.08 
L 956.44 377.08 
" clip-path="url(#p0f0c2b29b7)" style="fill: none; stroke: #15803d; stroke-opacity: 0.2; stroke-width: 0.9; stroke-linecap: square"/>
   </g>
   <g id="line2d_31">
    <path d="M 63.97065 364.379807 
L 72.7513 363.217113 
L 81.53195 361.428354 
L 90.3126 351.500738 
L 99.09325 340.410428 
L 107.8739 334.418084 
L 116.65455 330.303937 
L 125.4352 340.589304 
L 134.21585 340.410428 
L 142.9965 341.304808 
L 151.77715 351.142986 
L 160.5578 362.233295 
L 169.33845 368.136202 
L 178.1191 372.250349 
L 186.89975 374.665175 
L 195.6804 376.006744 
L 204.46105 376.901124 
L 213.2417 376.990562 
L 222.02235 376.990562 
L 230.803 377.08 
L 239.58365 377.08 
L 248.3643 377.08 
L 257.14495 377.08 
L 265.9256 377.08 
L 274.70625 377.08 
L 283.4869 377.08 
L 292.26755 377.08 
L 301.0482 377.08 
L 309.82885 377.08 
L 318.6095 377.08 
L 327.39015 377.08 
L 336.1708 377.08 
L 344.95145 377.08 
L 353.7321 377.08 
L 362.51275 377.08 
L 371.2934 377.08 
L 380.07405 377.08 
L 388.8547 377.08 
L 397.63535 377.08 
L 406.416 377.08 
L 415.19665 377.08 
L 423.9773 377.08 
L 432.75795 377.08 
L 441.5386 377.08 
L 450.31925 377.08 
L 459.0999 377.08 
L 467.88055 377.08 
L 476.6612 377.08 
L 485.44185 377.08 
L 494.2225 377.08 
L 503.00315 377.08 
L 511.7838 377.08 
L 520.56445 377.08 
L 529.3451 377.08 
L 538.12575 377.08 
L 546.9064 377.08 
L 555.68705 377.08 
L 564.4677 377.08 
L 573.24835 377.08 
L 582.029 377.08 
L 590.80965 377.08 
L 599.5903 377.08 
L 608.37095 377.08 
L 617.1516 377.08 
L 625.93225 377.08 
L 634.7129 377.08 
L 643.49355 377.08 
L 661.05485 377.08 
L 669.8355 377.08 
L 687.3968 377.08 
L 696.17745 377.08 
L 704.9581 377.08 
L 722.5194 377.08 
L 748.86135 377.08 
L 757.642 377.08 
L 766.42265 377.08 
L 775.2033 377.08 
L 783.98395 377.08 
L 792.7646 377.08 
L 836.66785 377.08 
L 863.0098 377.08 
L 898.1324 377.08 
L 956.44 377.08 
" clip-path="url(#p0f0c2b29b7)" style="fill: none; stroke: #15803d; stroke-width: 2.2; stroke-linecap: square"/>
   </g>
   <g id="line2d_32">
    <path d="M 63.97065 377.08 
L 72.7513 377.08 
L 81.53195 377.08 
L 90.3126 359.952241 
L 99.09325 369.294655 
L 107.8739 357.616638 
L 116.65455 311.683103 
L 125.4352 364.623448 
L 134.21585 370.07319 
L 142.9965 345.160086 
L 151.77715 348.274224 
L 160.5578 368.516121 
L 169.33845 348.274224 
L 178.1191 367.737586 
L 186.89975 346.717155 
L 195.6804 364.623448 
L 204.46105 363.066379 
L 213.2417 366.959052 
L 222.02235 367.737586 
L 230.803 377.08 
L 239.58365 360.730776 
L 248.3643 366.180517 
L 257.14495 366.180517 
L 265.9256 376.301466 
L 274.70625 377.08 
L 283.4869 377.08 
L 292.26755 377.08 
L 301.0482 377.08 
L 309.82885 373.187328 
L 318.6095 375.522931 
L 327.39015 377.08 
L 336.1708 377.08 
L 344.95145 377.08 
L 353.7321 377.08 
L 362.51275 377.08 
L 371.2934 377.08 
L 380.07405 377.08 
L 388.8547 377.08 
L 397.63535 377.08 
L 406.416 377.08 
L 415.19665 377.08 
L 423.9773 373.965862 
L 432.75795 377.08 
L 441.5386 377.08 
L 450.31925 377.08 
L 459.0999 377.08 
L 467.88055 377.08 
L 476.6612 377.08 
L 485.44185 377.08 
L 494.2225 377.08 
L 503.00315 377.08 
L 511.7838 377.08 
L 520.56445 377.08 
L 529.3451 377.08 
L 538.12575 377.08 
L 546.9064 377.08 
L 555.68705 377.08 
L 564.4677 377.08 
L 573.24835 377.08 
L 582.029 377.08 
L 590.80965 377.08 
L 599.5903 377.08 
L 608.37095 377.08 
L 617.1516 377.08 
L 625.93225 377.08 
L 634.7129 377.08 
L 643.49355 377.08 
L 661.05485 376.301466 
L 669.8355 377.08 
L 687.3968 377.08 
L 696.17745 377.08 
L 704.9581 377.08 
L 722.5194 377.08 
L 748.86135 377.08 
L 757.642 377.08 
L 766.42265 377.08 
L 775.2033 377.08 
L 783.98395 377.08 
L 792.7646 377.08 
L 836.66785 377.08 
L 863.0098 377.08 
L 898.1324 377.08 
L 956.44 377.08 
" clip-path="url(#p0f0c2b29b7)" style="fill: none; stroke: #f0a96b; stroke-opacity: 0.2; stroke-width: 0.9; stroke-linecap: square"/>
   </g>
   <g id="line2d_33">
    <path d="M 63.97065 374.633177 
L 72.7513 373.520985 
L 81.53195 370.740505 
L 90.3126 361.398091 
L 99.09325 359.618584 
L 107.8739 358.617611 
L 116.65455 354.057623 
L 125.4352 352.389335 
L 134.21585 352.278116 
L 142.9965 350.943485 
L 151.77715 358.951268 
L 160.5578 356.393227 
L 169.33845 355.614692 
L 178.1191 358.172734 
L 186.89975 360.841995 
L 195.6804 360.730776 
L 204.46105 364.845887 
L 213.2417 363.844914 
L 222.02235 366.625394 
L 230.803 366.847833 
L 239.58365 368.738559 
L 248.3643 370.184409 
L 257.14495 371.519039 
L 265.9256 371.519039 
L 274.70625 373.854643 
L 283.4869 374.855616 
L 292.26755 376.190246 
L 301.0482 376.301466 
L 309.82885 376.301466 
L 318.6095 376.301466 
L 327.39015 376.301466 
L 336.1708 376.301466 
L 344.95145 376.857562 
L 353.7321 377.08 
L 362.51275 377.08 
L 371.2934 377.08 
L 380.07405 377.08 
L 388.8547 377.08 
L 397.63535 376.635123 
L 406.416 376.635123 
L 415.19665 376.635123 
L 423.9773 376.635123 
L 432.75795 376.635123 
L 441.5386 376.635123 
L 450.31925 376.635123 
L 459.0999 377.08 
L 467.88055 377.08 
L 476.6612 377.08 
L 485.44185 377.08 
L 494.2225 377.08 
L 503.00315 377.08 
L 511.7838 377.08 
L 520.56445 377.08 
L 529.3451 377.08 
L 538.12575 377.08 
L 546.9064 377.08 
L 555.68705 377.08 
L 564.4677 377.08 
L 573.24835 377.08 
L 582.029 377.08 
L 590.80965 377.08 
L 599.5903 377.08 
L 608.37095 377.08 
L 617.1516 377.08 
L 625.93225 376.968781 
L 634.7129 376.968781 
L 643.49355 376.968781 
L 661.05485 376.968781 
L 669.8355 376.968781 
L 687.3968 376.968781 
L 696.17745 376.968781 
L 704.9581 377.08 
L 722.5194 377.08 
L 748.86135 377.08 
L 757.642 377.08 
L 766.42265 377.08 
L 775.2033 377.08 
L 783.98395 377.08 
L 792.7646 377.08 
L 836.66785 377.08 
L 863.0098 377.08 
L 898.1324 377.08 
L 956.44 377.08 
" clip-path="url(#p0f0c2b29b7)" style="fill: none; stroke: #f0a96b; stroke-width: 2.2; stroke-linecap: square"/>
   </g>
   <g id="line2d_34">
    <path d="M 63.97065 377.08 
L 72.7513 377.08 
L 81.53195 377.08 
L 90.3126 372.87741 
L 99.09325 349.489084 
L 107.8739 291.200992 
L 116.65455 264.340961 
L 125.4352 338.160364 
L 134.21585 301.067941 
L 142.9965 368.492099 
L 151.77715 373.791017 
L 160.5578 374.156459 
L 169.33845 375.983672 
L 178.1191 377.08 
L 186.89975 377.08 
L 195.6804 377.08 
L 204.46105 377.08 
L 213.2417 377.08 
L 222.02235 377.08 
L 230.803 377.08 
L 239.58365 377.08 
L 248.3643 377.08 
L 257.14495 377.08 
L 265.9256 377.08 
L 274.70625 377.08 
L 283.4869 377.08 
L 292.26755 377.08 
L 301.0482 377.08 
L 309.82885 377.08 
L 318.6095 377.08 
L 327.39015 377.08 
L 336.1708 377.08 
L 344.95145 377.08 
L 353.7321 377.08 
L 362.51275 377.08 
L 371.2934 377.08 
L 380.07405 377.08 
L 388.8547 377.08 
L 397.63535 377.08 
L 406.416 377.08 
L 415.19665 377.08 
L 423.9773 377.08 
L 432.75795 377.08 
L 441.5386 377.08 
L 450.31925 377.08 
L 459.0999 377.08 
L 467.88055 377.08 
L 476.6612 377.08 
L 485.44185 377.08 
L 494.2225 377.08 
L 503.00315 377.08 
L 511.7838 377.08 
L 520.56445 377.08 
L 529.3451 377.08 
L 538.12575 377.08 
L 546.9064 377.08 
L 555.68705 377.08 
L 564.4677 377.08 
L 573.24835 377.08 
L 582.029 377.08 
L 590.80965 377.08 
L 599.5903 377.08 
L 608.37095 377.08 
L 617.1516 377.08 
L 625.93225 377.08 
L 634.7129 377.08 
L 643.49355 377.08 
L 661.05485 377.08 
L 669.8355 377.08 
L 687.3968 377.08 
L 696.17745 377.08 
L 704.9581 377.08 
L 722.5194 377.08 
L 748.86135 377.08 
L 757.642 377.08 
L 766.42265 377.08 
L 775.2033 377.08 
L 783.98395 377.08 
L 792.7646 377.08 
L 836.66785 377.08 
L 863.0098 377.08 
L 898.1324 377.08 
L 956.44 377.08 
" clip-path="url(#p0f0c2b29b7)" style="fill: none; stroke: #be185d; stroke-opacity: 0.2; stroke-width: 0.9; stroke-linecap: square"/>
   </g>
   <g id="line2d_35">
    <path d="M 63.97065 376.47963 
L 72.7513 372.538071 
L 81.53195 360.269641 
L 90.3126 344.164064 
L 99.09325 338.604116 
L 107.8739 327.74525 
L 116.65455 326.518407 
L 125.4352 326.648923 
L 134.21585 330.172833 
L 142.9965 342.284645 
L 151.77715 358.390222 
L 160.5578 363.95017 
L 169.33845 374.809035 
L 178.1191 376.035878 
L 186.89975 376.505733 
L 195.6804 376.923382 
L 204.46105 377.08 
L 213.2417 377.08 
L 222.02235 377.08 
L 230.803 377.08 
L 239.58365 377.08 
L 248.3643 377.08 
L 257.14495 377.08 
L 265.9256 377.08 
L 274.70625 377.08 
L 283.4869 377.08 
L 292.26755 377.08 
L 301.0482 377.08 
L 309.82885 377.08 
L 318.6095 377.08 
L 327.39015 377.08 
L 336.1708 377.08 
L 344.95145 377.08 
L 353.7321 377.08 
L 362.51275 377.08 
L 371.2934 377.08 
L 380.07405 377.08 
L 388.8547 377.08 
L 397.63535 377.08 
L 406.416 377.08 
L 415.19665 377.08 
L 423.9773 377.08 
L 432.75795 377.08 
L 441.5386 377.08 
L 450.31925 377.08 
L 459.0999 377.08 
L 467.88055 377.08 
L 476.6612 377.08 
L 485.44185 377.08 
L 494.2225 377.08 
L 503.00315 377.08 
L 511.7838 377.08 
L 520.56445 377.08 
L 529.3451 377.08 
L 538.12575 377.08 
L 546.9064 377.08 
L 555.68705 377.08 
L 564.4677 377.08 
L 573.24835 377.08 
L 582.029 377.08 
L 590.80965 377.08 
L 599.5903 377.08 
L 608.37095 377.08 
L 617.1516 377.08 
L 625.93225 377.08 
L 634.7129 377.08 
L 643.49355 377.08 
L 661.05485 377.08 
L 669.8355 377.08 
L 687.3968 377.08 
L 696.17745 377.08 
L 704.9581 377.08 
L 722.5194 377.08 
L 748.86135 377.08 
L 757.642 377.08 
L 766.42265 377.08 
L 775.2033 377.08 
L 783.98395 377.08 
L 792.7646 377.08 
L 836.66785 377.08 
L 863.0098 377.08 
L 898.1324 377.08 
L 956.44 377.08 
" clip-path="url(#p0f0c2b29b7)" style="fill: none; stroke: #be185d; stroke-width: 2.2; stroke-linecap: square"/>
   </g>
   <g id="line2d_36">
    <path d="M 63.97065 377.08 
L 72.7513 377.08 
L 81.53195 377.08 
L 90.3126 146.815906 
L 99.09325 318.774596 
L 107.8739 357.222363 
L 116.65455 360.391135 
L 125.4352 359.546129 
L 134.21585 373.066222 
L 142.9965 375.812491 
L 151.77715 375.178737 
L 160.5578 373.488725 
L 169.33845 372.432468 
L 178.1191 376.657497 
L 186.89975 374.967485 
L 195.6804 376.868749 
L 204.46105 376.657497 
L 213.2417 377.08 
L 222.02235 377.08 
L 230.803 377.08 
L 239.58365 377.08 
L 248.3643 377.08 
L 257.14495 377.08 
L 265.9256 377.08 
L 274.70625 377.08 
L 283.4869 377.08 
L 292.26755 377.08 
L 301.0482 377.08 
L 309.82885 377.08 
L 318.6095 377.08 
L 327.39015 377.08 
L 336.1708 377.08 
L 344.95145 377.08 
L 353.7321 377.08 
L 362.51275 377.08 
L 371.2934 377.08 
L 380.07405 377.08 
L 388.8547 377.08 
L 397.63535 377.08 
L 406.416 377.08 
L 415.19665 377.08 
L 423.9773 377.08 
L 432.75795 377.08 
L 441.5386 377.08 
L 450.31925 377.08 
L 459.0999 377.08 
L 467.88055 377.08 
L 476.6612 377.08 
L 485.44185 377.08 
L 494.2225 377.08 
L 503.00315 377.08 
L 511.7838 377.08 
L 520.56445 377.08 
L 529.3451 377.08 
L 538.12575 377.08 
L 546.9064 377.08 
L 555.68705 377.08 
L 564.4677 377.08 
L 573.24835 377.08 
L 582.029 377.08 
L 590.80965 377.08 
L 599.5903 377.08 
L 608.37095 377.08 
L 617.1516 377.08 
L 625.93225 377.08 
L 634.7129 377.08 
L 643.49355 377.08 
L 661.05485 377.08 
L 669.8355 377.08 
L 687.3968 377.08 
L 696.17745 377.08 
L 704.9581 377.08 
L 722.5194 377.08 
L 748.86135 377.08 
L 757.642 377.08 
L 766.42265 377.08 
L 775.2033 377.08 
L 783.98395 377.08 
L 792.7646 377.08 
L 836.66785 377.08 
L 863.0098 377.08 
L 898.1324 377.08 
L 956.44 377.08 
" clip-path="url(#p0f0c2b29b7)" style="fill: none; stroke: #111118; stroke-opacity: 0.2; stroke-width: 0.9; stroke-linecap: square"/>
   </g>
   <g id="line2d_37">
    <path d="M 63.97065 344.185129 
L 72.7513 335.855786 
L 81.53195 333.018981 
L 90.3126 330.634857 
L 99.09325 328.130018 
L 107.8739 327.556622 
L 116.65455 327.375549 
L 125.4352 359.99881 
L 134.21585 367.815114 
L 142.9965 369.987987 
L 151.77715 372.311753 
L 160.5578 374.514804 
L 169.33845 375.058022 
L 178.1191 375.178737 
L 186.89975 375.450346 
L 195.6804 375.963385 
L 204.46105 376.627318 
L 213.2417 376.687676 
L 222.02235 376.989464 
L 230.803 377.019642 
L 239.58365 377.08 
L 248.3643 377.08 
L 257.14495 377.08 
L 265.9256 377.08 
L 274.70625 377.08 
L 283.4869 377.08 
L 292.26755 377.08 
L 301.0482 377.08 
L 309.82885 377.08 
L 318.6095 377.08 
L 327.39015 377.08 
L 336.1708 377.08 
L 344.95145 377.08 
L 353.7321 377.08 
L 362.51275 377.08 
L 371.2934 377.08 
L 380.07405 377.08 
L 388.8547 377.08 
L 397.63535 377.08 
L 406.416 377.08 
L 415.19665 377.08 
L 423.9773 377.08 
L 432.75795 377.08 
L 441.5386 377.08 
L 450.31925 377.08 
L 459.0999 377.08 
L 467.88055 377.08 
L 476.6612 377.08 
L 485.44185 377.08 
L 494.2225 377.08 
L 503.00315 377.08 
L 511.7838 377.08 
L 520.56445 377.08 
L 529.3451 377.08 
L 538.12575 377.08 
L 546.9064 377.08 
L 555.68705 377.08 
L 564.4677 377.08 
L 573.24835 377.08 
L 582.029 377.08 
L 590.80965 377.08 
L 599.5903 377.08 
L 608.37095 377.08 
L 617.1516 377.08 
L 625.93225 377.08 
L 634.7129 377.08 
L 643.49355 377.08 
L 661.05485 377.08 
L 669.8355 377.08 
L 687.3968 377.08 
L 696.17745 377.08 
L 704.9581 377.08 
L 722.5194 377.08 
L 748.86135 377.08 
L 757.642 377.08 
L 766.42265 377.08 
L 775.2033 377.08 
L 783.98395 377.08 
L 792.7646 377.08 
L 836.66785 377.08 
L 863.0098 377.08 
L 898.1324 377.08 
L 956.44 377.08 
" clip-path="url(#p0f0c2b29b7)" style="fill: none; stroke: #111118; stroke-width: 2.2; stroke-linecap: square"/>
   </g>
   <g id="line2d_38">
    <path d="M 63.97065 377.08 
L 72.7513 377.08 
L 81.53195 377.08 
L 90.3126 154.922067 
L 99.09325 307.694539 
L 107.8739 347.365599 
L 116.65455 356.544393 
L 125.4352 372.101671 
L 134.21585 368.67907 
L 142.9965 375.213126 
L 151.77715 376.924427 
L 160.5578 375.213126 
L 169.33845 375.3687 
L 178.1191 377.08 
L 186.89975 377.08 
L 195.6804 377.08 
L 204.46105 376.613282 
L 213.2417 377.08 
L 222.02235 377.08 
L 230.803 377.08 
L 239.58365 377.08 
L 248.3643 377.08 
L 257.14495 377.08 
L 265.9256 377.08 
L 274.70625 377.08 
L 283.4869 377.08 
L 292.26755 377.08 
L 301.0482 377.08 
L 309.82885 377.08 
L 318.6095 377.08 
L 327.39015 377.08 
L 336.1708 377.08 
L 344.95145 377.08 
L 353.7321 377.08 
L 362.51275 377.08 
L 371.2934 377.08 
L 380.07405 377.08 
L 388.8547 377.08 
L 397.63535 377.08 
L 406.416 377.08 
L 415.19665 377.08 
L 423.9773 377.08 
L 432.75795 377.08 
L 441.5386 377.08 
L 450.31925 377.08 
L 459.0999 377.08 
L 467.88055 377.08 
L 476.6612 377.08 
L 485.44185 377.08 
L 494.2225 377.08 
L 503.00315 377.08 
L 511.7838 377.08 
L 520.56445 377.08 
L 529.3451 377.08 
L 538.12575 377.08 
L 546.9064 377.08 
L 555.68705 377.08 
L 564.4677 377.08 
L 573.24835 377.08 
L 582.029 377.08 
L 590.80965 377.08 
L 599.5903 377.08 
L 608.37095 377.08 
L 617.1516 377.08 
L 625.93225 377.08 
L 634.7129 377.08 
L 643.49355 377.08 
L 661.05485 377.08 
L 669.8355 377.08 
L 687.3968 377.08 
L 696.17745 377.08 
L 704.9581 377.08 
L 722.5194 377.08 
L 748.86135 377.08 
L 757.642 377.08 
L 766.42265 377.08 
L 775.2033 377.08 
L 783.98395 377.08 
L 792.7646 377.08 
L 836.66785 377.08 
L 863.0098 377.08 
L 898.1324 377.08 
L 956.44 377.08 
" clip-path="url(#p0f0c2b29b7)" style="fill: none; stroke: #c87979; stroke-opacity: 0.2; stroke-width: 0.9; stroke-linecap: square"/>
   </g>
   <g id="line2d_39">
    <path d="M 63.97065 345.343152 
L 72.7513 335.430944 
L 81.53195 331.186029 
L 90.3126 328.252371 
L 99.09325 327.541181 
L 107.8739 326.341048 
L 116.65455 326.074352 
L 125.4352 357.788975 
L 134.21585 367.434488 
L 142.9965 371.43493 
L 151.77715 374.368589 
L 160.5578 375.079779 
L 169.33845 376.279911 
L 178.1191 376.479934 
L 186.89975 376.502158 
L 195.6804 376.768854 
L 204.46105 377.013326 
L 213.2417 377.013326 
L 222.02235 377.013326 
L 230.803 377.013326 
L 239.58365 377.08 
L 248.3643 377.08 
L 257.14495 377.08 
L 265.9256 377.08 
L 274.70625 377.08 
L 283.4869 377.08 
L 292.26755 377.08 
L 301.0482 377.08 
L 309.82885 377.08 
L 318.6095 377.08 
L 327.39015 377.08 
L 336.1708 377.08 
L 344.95145 377.08 
L 353.7321 377.08 
L 362.51275 377.08 
L 371.2934 377.08 
L 380.07405 377.08 
L 388.8547 377.08 
L 397.63535 377.08 
L 406.416 377.08 
L 415.19665 377.08 
L 423.9773 377.08 
L 432.75795 377.08 
L 441.5386 377.08 
L 450.31925 377.08 
L 459.0999 377.08 
L 467.88055 377.08 
L 476.6612 377.08 
L 485.44185 377.08 
L 494.2225 377.08 
L 503.00315 377.08 
L 511.7838 377.08 
L 520.56445 377.08 
L 529.3451 377.08 
L 538.12575 377.08 
L 546.9064 377.08 
L 555.68705 377.08 
L 564.4677 377.08 
L 573.24835 377.08 
L 582.029 377.08 
L 590.80965 377.08 
L 599.5903 377.08 
L 608.37095 377.08 
L 617.1516 377.08 
L 625.93225 377.08 
L 634.7129 377.08 
L 643.49355 377.08 
L 661.05485 377.08 
L 669.8355 377.08 
L 687.3968 377.08 
L 696.17745 377.08 
L 704.9581 377.08 
L 722.5194 377.08 
L 748.86135 377.08 
L 757.642 377.08 
L 766.42265 377.08 
L 775.2033 377.08 
L 783.98395 377.08 
L 792.7646 377.08 
L 836.66785 377.08 
L 863.0098 377.08 
L 898.1324 377.08 
L 956.44 377.08 
" clip-path="url(#p0f0c2b29b7)" style="fill: none; stroke: #c87979; stroke-width: 2.2; stroke-linecap: square"/>
   </g>
   <g id="line2d_40">
    <path d="M 63.97065 377.08 
L 72.7513 377.08 
L 81.53195 377.08 
L 90.3126 358.410798 
L 99.09325 351.341876 
L 107.8739 329.772604 
L 116.65455 293.521726 
L 125.4352 275.577541 
L 134.21585 319.803613 
L 142.9965 370.736096 
L 151.77715 368.742298 
L 160.5578 375.811219 
L 169.33845 375.086202 
L 178.1191 374.542439 
L 186.89975 376.354982 
L 195.6804 374.723693 
L 204.46105 375.086202 
L 213.2417 377.08 
L 222.02235 377.08 
L 230.803 376.354982 
L 239.58365 377.08 
L 248.3643 377.08 
L 257.14495 377.08 
L 265.9256 377.08 
L 274.70625 376.717491 
L 283.4869 377.08 
L 292.26755 377.08 
L 301.0482 377.08 
L 309.82885 376.898746 
L 318.6095 377.08 
L 327.39015 377.08 
L 336.1708 377.08 
L 344.95145 377.08 
L 353.7321 377.08 
L 362.51275 377.08 
L 371.2934 377.08 
L 380.07405 377.08 
L 388.8547 377.08 
L 397.63535 377.08 
L 406.416 377.08 
L 415.19665 377.08 
L 423.9773 376.717491 
L 432.75795 377.08 
L 441.5386 377.08 
L 450.31925 377.08 
L 459.0999 377.08 
L 467.88055 377.08 
L 476.6612 377.08 
L 485.44185 377.08 
L 494.2225 377.08 
L 503.00315 377.08 
L 511.7838 377.08 
L 520.56445 377.08 
L 529.3451 377.08 
L 538.12575 377.08 
L 546.9064 377.08 
L 555.68705 377.08 
L 564.4677 377.08 
L 573.24835 377.08 
L 582.029 377.08 
L 590.80965 377.08 
L 599.5903 377.08 
L 608.37095 377.08 
L 617.1516 377.08 
L 625.93225 377.08 
L 634.7129 377.08 
L 643.49355 377.08 
L 661.05485 377.08 
L 669.8355 377.08 
L 687.3968 377.08 
L 696.17745 377.08 
L 704.9581 377.08 
L 722.5194 377.08 
L 748.86135 377.08 
L 757.642 377.08 
L 766.42265 377.08 
L 775.2033 377.08 
L 783.98395 377.08 
L 792.7646 377.08 
L 836.66785 377.08 
L 863.0098 377.08 
L 898.1324 377.08 
L 956.44 377.08 
" clip-path="url(#p0f0c2b29b7)" style="fill: none; stroke: #7aa8e8; stroke-opacity: 0.2; stroke-width: 0.9; stroke-linecap: square"/>
   </g>
   <g id="line2d_41">
    <path d="M 63.97065 374.412971 
L 72.7513 370.736096 
L 81.53195 363.977897 
L 90.3126 352.041001 
L 99.09325 337.540649 
L 107.8739 329.358308 
L 116.65455 328.452036 
L 125.4352 329.927965 
L 134.21585 333.423585 
L 142.9965 339.896956 
L 151.77715 351.471344 
L 160.5578 365.868121 
L 169.33845 373.713847 
L 178.1191 374.335291 
L 186.89975 375.526391 
L 195.6804 375.707645 
L 204.46105 375.8889 
L 213.2417 376.251408 
L 222.02235 376.354982 
L 230.803 376.691598 
L 239.58365 376.976426 
L 248.3643 376.924639 
L 257.14495 376.924639 
L 265.9256 377.028213 
L 274.70625 377.028213 
L 283.4869 377.00232 
L 292.26755 377.00232 
L 301.0482 377.00232 
L 309.82885 377.054107 
L 318.6095 377.054107 
L 327.39015 377.054107 
L 336.1708 377.054107 
L 344.95145 377.08 
L 353.7321 377.08 
L 362.51275 377.08 
L 371.2934 377.08 
L 380.07405 377.08 
L 388.8547 377.08 
L 397.63535 377.028213 
L 406.416 377.028213 
L 415.19665 377.028213 
L 423.9773 377.028213 
L 432.75795 377.028213 
L 441.5386 377.028213 
L 450.31925 377.028213 
L 459.0999 377.08 
L 467.88055 377.08 
L 476.6612 377.08 
L 485.44185 377.08 
L 494.2225 377.08 
L 503.00315 377.08 
L 511.7838 377.08 
L 520.56445 377.08 
L 529.3451 377.08 
L 538.12575 377.08 
L 546.9064 377.08 
L 555.68705 377.08 
L 564.4677 377.08 
L 573.24835 377.08 
L 582.029 377.08 
L 590.80965 377.08 
L 599.5903 377.08 
L 608.37095 377.08 
L 617.1516 377.08 
L 625.93225 377.08 
L 634.7129 377.08 
L 643.49355 377.08 
L 661.05485 377.08 
L 669.8355 377.08 
L 687.3968 377.08 
L 696.17745 377.08 
L 704.9581 377.08 
L 722.5194 377.08 
L 748.86135 377.08 
L 757.642 377.08 
L 766.42265 377.08 
L 775.2033 377.08 
L 783.98395 377.08 
L 792.7646 377.08 
L 836.66785 377.08 
L 863.0098 377.08 
L 898.1324 377.08 
L 956.44 377.08 
" clip-path="url(#p0f0c2b29b7)" style="fill: none; stroke: #7aa8e8; stroke-width: 2.2; stroke-linecap: square"/>
   </g>
   <g id="line2d_42">
    <path d="M 63.97065 376.251278 
L 72.7513 361.375715 
L 81.53195 361.790076 
L 90.3126 334.69086 
L 99.09325 351.762537 
L 107.8739 322.301464 
L 116.65455 323.08875 
L 125.4352 334.980913 
L 134.21585 341.279202 
L 142.9965 358.143698 
L 151.77715 366.265176 
L 160.5578 373.019261 
L 169.33845 375.132503 
L 178.1191 374.013728 
L 186.89975 373.972292 
L 195.6804 373.640803 
L 204.46105 367.964056 
L 213.2417 374.0966 
L 222.02235 375.339683 
L 230.803 372.936389 
L 239.58365 371.941922 
L 248.3643 376.209842 
L 257.14495 376.044097 
L 265.9256 376.707075 
L 274.70625 376.789947 
L 283.4869 376.997128 
L 292.26755 376.914256 
L 301.0482 377.038564 
L 309.82885 377.038564 
L 318.6095 376.997128 
L 327.39015 377.08 
L 336.1708 377.08 
L 344.95145 376.33415 
L 353.7321 377.038564 
L 362.51275 377.08 
L 371.2934 377.08 
L 380.07405 376.789947 
L 388.8547 377.08 
L 397.63535 377.08 
L 406.416 377.08 
L 415.19665 377.08 
L 423.9773 377.038564 
L 432.75795 377.08 
L 441.5386 377.08 
L 450.31925 377.08 
L 459.0999 377.038564 
L 467.88055 377.08 
L 476.6612 376.914256 
L 485.44185 375.878353 
L 494.2225 376.251278 
L 503.00315 376.872819 
L 511.7838 377.08 
L 520.56445 377.08 
L 529.3451 377.08 
L 538.12575 377.08 
L 546.9064 377.08 
L 555.68705 377.08 
L 564.4677 377.08 
L 573.24835 377.08 
L 582.029 377.08 
L 590.80965 377.08 
L 599.5903 377.08 
L 608.37095 377.08 
L 617.1516 377.08 
L 625.93225 377.08 
L 634.7129 377.08 
L 643.49355 377.08 
L 661.05485 377.08 
L 669.8355 377.08 
L 687.3968 377.08 
L 696.17745 377.08 
L 704.9581 377.08 
L 722.5194 377.08 
L 748.86135 377.08 
L 757.642 377.08 
L 766.42265 377.08 
L 775.2033 377.08 
L 783.98395 377.08 
L 792.7646 377.08 
L 836.66785 377.08 
L 863.0098 377.08 
L 898.1324 377.08 
L 956.44 377.08 
" clip-path="url(#p0f0c2b29b7)" style="fill: none; stroke: #6bbf8a; stroke-opacity: 0.2; stroke-width: 0.9; stroke-linecap: square"/>
   </g>
   <g id="line2d_43">
    <path d="M 63.97065 366.478275 
L 72.7513 362.861495 
L 81.53195 355.03599 
L 90.3126 347.322954 
L 99.09325 341.427188 
L 107.8739 338.556257 
L 116.65455 338.035346 
L 125.4352 342.545963 
L 134.21585 345.582638 
L 142.9965 353.129929 
L 151.77715 360.404926 
L 160.5578 365.975123 
L 169.33845 370.598209 
L 178.1191 372.001117 
L 186.89975 373.119892 
L 195.6804 373.451381 
L 204.46105 373.13765 
L 213.2417 372.841678 
L 222.02235 373.161328 
L 230.803 373.504656 
L 239.58365 374.753658 
L 248.3643 375.138422 
L 257.14495 375.3752 
L 265.9256 375.943467 
L 274.70625 376.671558 
L 283.4869 376.789947 
L 292.26755 376.926095 
L 301.0482 376.97937 
L 309.82885 377.020806 
L 318.6095 376.926094 
L 327.39015 376.943853 
L 336.1708 376.949772 
L 344.95145 376.955692 
L 353.7321 376.926094 
L 362.51275 376.926094 
L 371.2934 376.926094 
L 380.07405 377.032644 
L 388.8547 377.038564 
L 397.63535 377.032644 
L 406.416 377.032644 
L 415.19665 377.074081 
L 423.9773 377.074081 
L 432.75795 377.068161 
L 441.5386 377.068161 
L 450.31925 377.044483 
L 459.0999 376.878739 
L 467.88055 376.76035 
L 476.6612 376.730753 
L 485.44185 376.730753 
L 494.2225 376.736672 
L 503.00315 376.736672 
L 511.7838 376.76035 
L 520.56445 376.932014 
L 529.3451 377.050403 
L 538.12575 377.08 
L 546.9064 377.08 
L 555.68705 377.08 
L 564.4677 377.08 
L 573.24835 377.08 
L 582.029 377.08 
L 590.80965 377.08 
L 599.5903 377.08 
L 608.37095 377.08 
L 617.1516 377.08 
L 625.93225 377.08 
L 634.7129 377.08 
L 643.49355 377.08 
L 661.05485 377.08 
L 669.8355 377.08 
L 687.3968 377.08 
L 696.17745 377.08 
L 704.9581 377.08 
L 722.5194 377.08 
L 748.86135 377.08 
L 757.642 377.08 
L 766.42265 377.08 
L 775.2033 377.08 
L 783.98395 377.08 
L 792.7646 377.08 
L 836.66785 377.08 
L 863.0098 377.08 
L 898.1324 377.08 
L 956.44 377.08 
" clip-path="url(#p0f0c2b29b7)" style="fill: none; stroke: #6bbf8a; stroke-width: 2.2; stroke-linecap: square"/>
   </g>
   <g id="line2d_44">
    <path d="M 63.97065 375.944168 
L 72.7513 373.286321 
L 81.53195 375.717002 
L 90.3126 359.042988 
L 99.09325 344.004573 
L 107.8739 341.573893 
L 116.65455 350.864998 
L 125.4352 344.845089 
L 134.21585 352.159847 
L 142.9965 354.227061 
L 151.77715 353.750011 
L 160.5578 359.951654 
L 169.33845 364.108799 
L 178.1191 354.749543 
L 186.89975 368.62941 
L 195.6804 371.74159 
L 204.46105 366.834796 
L 213.2417 370.492174 
L 222.02235 373.150021 
L 230.803 366.812079 
L 239.58365 374.44487 
L 248.3643 375.853302 
L 257.14495 373.172738 
L 265.9256 374.717469 
L 274.70625 375.239952 
L 283.4869 376.035035 
L 292.26755 375.944168 
L 301.0482 374.899203 
L 309.82885 375.194519 
L 318.6095 375.762435 
L 327.39015 376.693817 
L 336.1708 376.9437 
L 344.95145 376.8074 
L 353.7321 375.126369 
L 362.51275 376.852834 
L 371.2934 375.876018 
L 380.07405 376.9437 
L 388.8547 375.921451 
L 397.63535 375.717002 
L 406.416 376.580234 
L 415.19665 376.421217 
L 423.9773 374.831053 
L 432.75795 375.489835 
L 441.5386 376.693817 
L 450.31925 376.966417 
L 459.0999 376.852834 
L 467.88055 376.466651 
L 476.6612 375.648852 
L 485.44185 375.921451 
L 494.2225 375.785151 
L 503.00315 376.693817 
L 511.7838 377.08 
L 520.56445 376.353068 
L 529.3451 376.307634 
L 538.12575 377.08 
L 546.9064 376.307634 
L 555.68705 375.262669 
L 564.4677 377.057283 
L 573.24835 377.08 
L 582.029 377.08 
L 590.80965 377.08 
L 599.5903 376.852834 
L 608.37095 377.08 
L 617.1516 377.08 
L 625.93225 377.08 
L 634.7129 377.08 
L 643.49355 377.08 
L 661.05485 377.08 
L 669.8355 377.057283 
L 687.3968 377.057283 
L 696.17745 377.08 
L 704.9581 377.057283 
L 722.5194 377.08 
L 748.86135 377.08 
L 757.642 377.08 
L 766.42265 377.08 
L 775.2033 377.08 
L 783.98395 377.08 
L 792.7646 377.08 
L 836.66785 377.08 
L 863.0098 377.08 
L 898.1324 377.057283 
L 956.44 377.078833 
" clip-path="url(#p0f0c2b29b7)" style="fill: none; stroke: #e08866; stroke-opacity: 0.2; stroke-width: 0.9; stroke-linecap: square"/>
   </g>
   <g id="line2d_45">
    <path d="M 63.97065 373.604354 
L 72.7513 368.879293 
L 81.53195 363.806992 
L 90.3126 360.061992 
L 99.09325 355.619266 
L 107.8739 352.601198 
L 116.65455 349.531207 
L 125.4352 348.775067 
L 134.21585 351.053222 
L 142.9965 354.272494 
L 151.77715 354.827429 
L 160.5578 358.225189 
L 169.33845 361.022581 
L 178.1191 362.823686 
L 186.89975 365.215424 
L 195.6804 367.100905 
L 204.46105 367.487088 
L 213.2417 370.300706 
L 222.02235 371.33269 
L 230.803 371.53714 
L 239.58365 372.663236 
L 248.3643 373.34149 
L 257.14495 373.753635 
L 265.9256 375.058219 
L 274.70625 375.123124 
L 283.4869 375.029012 
L 292.26755 375.398969 
L 301.0482 375.681304 
L 309.82885 375.924697 
L 318.6095 376.035035 
L 327.39015 375.918206 
L 336.1708 376.197296 
L 344.95145 376.294653 
L 353.7321 376.463405 
L 362.51275 376.353068 
L 371.2934 376.177825 
L 380.07405 376.145373 
L 388.8547 376.330351 
L 397.63535 376.041525 
L 406.416 375.986356 
L 415.19665 375.950658 
L 423.9773 376.099939 
L 432.75795 376.262201 
L 441.5386 376.245975 
L 450.31925 376.135637 
L 459.0999 376.291408 
L 467.88055 376.333596 
L 476.6612 376.333596 
L 485.44185 376.349822 
L 494.2225 376.278427 
L 503.00315 376.25571 
L 511.7838 376.46016 
L 520.56445 376.515329 
L 529.3451 376.440689 
L 538.12575 376.492613 
L 546.9064 376.492613 
L 555.68705 376.59646 
L 564.4677 376.706798 
L 573.24835 376.674346 
L 582.029 376.784684 
L 590.80965 377.044302 
L 599.5903 377.047548 
L 608.37095 377.047548 
L 617.1516 377.047548 
L 625.93225 377.047548 
L 634.7129 377.076755 
L 643.49355 377.07351 
L 661.05485 377.07351 
L 669.8355 377.070264 
L 687.3968 377.070264 
L 696.17745 377.070264 
L 704.9581 377.070264 
L 722.5194 377.07351 
L 748.86135 377.076755 
L 757.642 377.076755 
L 766.42265 377.08 
L 775.2033 377.08 
L 783.98395 377.08 
L 792.7646 377.076755 
L 836.66785 377.076755 
L 863.0098 377.07351 
L 898.1324 377.070264 
L 956.44 377.067186 
" clip-path="url(#p0f0c2b29b7)" style="fill: none; stroke: #e08866; stroke-width: 2.2; stroke-linecap: square"/>
   </g>
   <g id="line2d_46">
    <path d="M 63.97065 376.53717 
L 72.7513 371.16315 
L 81.53195 375.193665 
L 90.3126 342.745983 
L 99.09325 339.950407 
L 107.8739 323.421224 
L 116.65455 320.394945 
L 125.4352 328.795244 
L 134.21585 345.826545 
L 142.9965 363.563525 
L 151.77715 368.747555 
L 160.5578 371.52956 
L 169.33845 370.389616 
L 178.1191 366.128399 
L 186.89975 371.122438 
L 195.6804 372.96806 
L 204.46105 373.076626 
L 213.2417 374.297995 
L 222.02235 373.782306 
L 230.803 373.456608 
L 239.58365 375.763636 
L 248.3643 376.021481 
L 257.14495 375.750066 
L 265.9256 376.455745 
L 274.70625 375.845061 
L 283.4869 376.279325 
L 292.26755 376.686448 
L 301.0482 375.207235 
L 309.82885 375.071528 
L 318.6095 376.90358 
L 327.39015 376.292896 
L 336.1708 376.130047 
L 344.95145 376.957863 
L 353.7321 376.36075 
L 362.51275 375.980769 
L 371.2934 377.052859 
L 380.07405 376.781443 
L 388.8547 377.039288 
L 397.63535 376.998575 
L 406.416 376.998575 
L 415.19665 376.944292 
L 423.9773 376.808585 
L 432.75795 377.039288 
L 441.5386 377.052859 
L 450.31925 376.985005 
L 459.0999 376.455745 
L 467.88055 376.197901 
L 476.6612 376.618594 
L 485.44185 375.994339 
L 494.2225 376.035052 
L 503.00315 375.668641 
L 511.7838 376.347179 
L 520.56445 376.862868 
L 529.3451 377.08 
L 538.12575 377.08 
L 546.9064 377.066429 
L 555.68705 377.066429 
L 564.4677 377.08 
L 573.24835 376.53717 
L 582.029 377.08 
L 590.80965 377.08 
L 599.5903 377.08 
L 608.37095 377.08 
L 617.1516 376.971434 
L 625.93225 377.08 
L 634.7129 377.08 
L 643.49355 377.08 
L 661.05485 377.08 
L 669.8355 377.08 
L 687.3968 377.08 
L 696.17745 377.08 
L 704.9581 377.08 
L 722.5194 377.08 
L 748.86135 377.08 
L 757.642 377.08 
L 766.42265 377.08 
L 775.2033 377.08 
L 783.98395 377.08 
L 792.7646 377.08 
L 836.66785 377.08 
L 863.0098 377.08 
L 898.1324 377.08 
L 956.44 377.08 
" clip-path="url(#p0f0c2b29b7)" style="fill: none; stroke: #d67aa5; stroke-opacity: 0.2; stroke-width: 0.9; stroke-linecap: square"/>
   </g>
   <g id="line2d_47">
    <path d="M 63.97065 370.982852 
L 72.7513 365.678625 
L 81.53195 358.013085 
L 90.3126 349.91522 
L 99.09325 343.094945 
L 107.8739 339.47543 
L 116.65455 337.813982 
L 125.4352 341.528492 
L 134.21585 346.0398 
L 142.9965 352.74957 
L 151.77715 359.282921 
L 160.5578 365.329662 
L 169.33845 369.207022 
L 178.1191 370.566036 
L 186.89975 371.358956 
L 195.6804 371.680777 
L 204.46105 372.118919 
L 213.2417 373.495381 
L 222.02235 374.195245 
L 230.803 374.592674 
L 239.58365 375.075405 
L 248.3643 375.296415 
L 257.14495 375.653132 
L 265.9256 376.114537 
L 274.70625 376.035052 
L 283.4869 375.899344 
L 292.26755 376.064132 
L 301.0482 376.040868 
L 309.82885 376.08158 
L 318.6095 376.178514 
L 327.39015 376.131986 
L 336.1708 376.24249 
L 344.95145 376.525538 
L 353.7321 376.50809 
L 362.51275 376.614717 
L 371.2934 376.738792 
L 380.07405 376.744608 
L 388.8547 376.827972 
L 397.63535 376.946231 
L 406.416 376.944292 
L 415.19665 376.983066 
L 423.9773 376.975311 
L 432.75795 376.897764 
L 441.5386 376.783382 
L 450.31925 376.736854 
L 459.0999 376.620533 
L 467.88055 376.477071 
L 476.6612 376.279325 
L 485.44185 376.188207 
L 494.2225 376.246368 
L 503.00315 376.372382 
L 511.7838 376.438297 
L 520.56445 376.591453 
L 529.3451 376.738792 
L 538.12575 376.940415 
L 546.9064 376.967557 
L 555.68705 376.998575 
L 564.4677 376.998575 
L 573.24835 376.998575 
L 582.029 377.000514 
L 590.80965 376.986943 
L 599.5903 376.986943 
L 608.37095 377.064491 
L 617.1516 377.064491 
L 625.93225 377.064491 
L 634.7129 377.064491 
L 643.49355 377.064491 
L 661.05485 377.08 
L 669.8355 377.08 
L 687.3968 377.08 
L 696.17745 377.08 
L 704.9581 377.08 
L 722.5194 377.08 
L 748.86135 377.08 
L 757.642 377.08 
L 766.42265 377.08 
L 775.2033 377.08 
L 783.98395 377.08 
L 792.7646 377.08 
L 836.66785 377.08 
L 863.0098 377.08 
L 898.1324 377.08 
L 956.44 377.08 
" clip-path="url(#p0f0c2b29b7)" style="fill: none; stroke: #d67aa5; stroke-width: 2.2; stroke-linecap: square"/>
   </g>
   <g id="line2d_48">
    <path d="M 63.97065 376.404532 
L 72.7513 372.576884 
L 81.53195 373.837756 
L 90.3126 370.482934 
L 99.09325 368.56911 
L 107.8739 366.677801 
L 116.65455 361.183999 
L 125.4352 364.516305 
L 134.21585 365.844724 
L 142.9965 362.737574 
L 151.77715 350.961925 
L 160.5578 359.022503 
L 169.33845 357.311319 
L 178.1191 355.735228 
L 186.89975 355.577619 
L 195.6804 354.744542 
L 204.46105 359.720486 
L 213.2417 356.163024 
L 222.02235 362.647512 
L 230.803 365.349382 
L 239.58365 367.736034 
L 248.3643 370.077654 
L 257.14495 367.083081 
L 265.9256 371.316011 
L 274.70625 371.451104 
L 283.4869 371.451104 
L 292.26755 373.950334 
L 301.0482 373.522538 
L 309.82885 374.805926 
L 318.6095 375.076113 
L 327.39015 375.166175 
L 336.1708 375.526425 
L 344.95145 376.336986 
L 353.7321 375.121144 
L 362.51275 374.895988 
L 371.2934 375.3463 
L 380.07405 375.593972 
L 388.8547 376.201892 
L 397.63535 376.697235 
L 406.416 375.90919 
L 415.19665 376.427048 
L 423.9773 376.179377 
L 432.75795 376.854844 
L 441.5386 375.864159 
L 450.31925 376.494595 
L 459.0999 376.742266 
L 467.88055 376.652204 
L 476.6612 376.562142 
L 485.44185 376.246923 
L 494.2225 374.918504 
L 503.00315 376.967422 
L 511.7838 376.809813 
L 520.56445 377.034969 
L 529.3451 377.057484 
L 538.12575 376.922391 
L 546.9064 376.674719 
L 555.68705 376.922391 
L 564.4677 376.899875 
L 573.24835 377.08 
L 582.029 377.034969 
L 590.80965 377.012453 
L 599.5903 376.652204 
L 608.37095 376.922391 
L 617.1516 376.809813 
L 625.93225 377.057484 
L 634.7129 376.944906 
L 643.49355 377.012453 
L 661.05485 377.08 
L 669.8355 376.944906 
L 687.3968 377.08 
L 696.17745 377.034969 
L 704.9581 377.08 
L 722.5194 376.922391 
L 748.86135 376.832328 
L 757.642 376.989938 
L 766.42265 376.944906 
L 775.2033 377.057484 
L 783.98395 377.057484 
L 792.7646 377.057484 
L 836.66785 377.057484 
L 863.0098 377.057484 
L 898.1324 377.08 
L 956.44 377.037282 
" clip-path="url(#p0f0c2b29b7)" style="fill: none; stroke: #5da87a; stroke-opacity: 0.2; stroke-width: 0.9; stroke-linecap: square"/>
   </g>
   <g id="line2d_49">
    <path d="M 63.97065 374.934587 
L 72.7513 373.718745 
L 81.53195 372.232717 
L 90.3126 369.96186 
L 99.09325 368.263541 
L 107.8739 367.301804 
L 116.65455 365.716064 
L 125.4352 362.927348 
L 134.21585 361.563547 
L 142.9965 360.225478 
L 151.77715 359.447083 
L 160.5578 358.170127 
L 169.33845 356.584387 
L 178.1191 356.153375 
L 186.89975 356.896389 
L 195.6804 357.414247 
L 204.46105 358.562542 
L 213.2417 360.276943 
L 222.02235 362.348376 
L 230.803 364.111025 
L 239.58365 365.767528 
L 248.3643 367.95154 
L 257.14495 369.209196 
L 265.9256 370.437903 
L 274.70625 371.264547 
L 283.4869 371.940014 
L 292.26755 373.081876 
L 301.0482 373.631899 
L 309.82885 374.214088 
L 318.6095 374.912071 
L 327.39015 375.07933 
L 336.1708 375.275537 
L 344.95145 375.352733 
L 353.7321 375.426713 
L 362.51275 375.574673 
L 371.2934 375.741931 
L 380.07405 375.680817 
L 388.8547 375.867375 
L 397.63535 376.050716 
L 406.416 376.266223 
L 415.19665 376.304821 
L 423.9773 376.346635 
L 432.75795 376.353068 
L 441.5386 376.459213 
L 450.31925 376.478512 
L 459.0999 376.488162 
L 467.88055 376.211542 
L 476.6612 376.369151 
L 485.44185 376.414182 
L 494.2225 376.455997 
L 503.00315 376.513894 
L 511.7838 376.565358 
L 520.56445 376.626472 
L 529.3451 376.912741 
L 538.12575 376.903092 
L 546.9064 376.94169 
L 555.68705 376.94169 
L 564.4677 376.935257 
L 573.24835 376.896659 
L 582.029 376.93204 
L 590.80965 376.915958 
L 599.5903 376.938473 
L 608.37095 376.919174 
L 617.1516 376.915958 
L 625.93225 376.925607 
L 634.7129 376.967422 
L 643.49355 376.989938 
L 661.05485 377.022103 
L 669.8355 377.025319 
L 687.3968 377.022103 
L 696.17745 376.996371 
L 704.9581 376.983505 
L 722.5194 376.983505 
L 748.86135 376.980288 
L 757.642 376.983505 
L 766.42265 376.980288 
L 775.2033 376.999587 
L 783.98395 377.031752 
L 792.7646 377.044618 
L 836.66785 377.057484 
L 863.0098 377.060701 
L 898.1324 377.063917 
L 956.44 377.066969 
" clip-path="url(#p0f0c2b29b7)" style="fill: none; stroke: #5da87a; stroke-width: 2.2; stroke-linecap: square"/>
   </g>
   <g id="line2d_50">
    <path d="M 494.2225 377.08 
L 494.2225 15.84 
" clip-path="url(#p0f0c2b29b7)" style="fill: none; stroke-dasharray: 4.44,1.92; stroke-dashoffset: 0; stroke: #555555; stroke-width: 1.2"/>
   </g>
   <g id="patch_3">
    <path d="M 55.19 377.08 
L 55.19 15.84 
" style="fill: none; stroke: #e5e7eb; stroke-width: 0.8; stroke-linejoin: miter; stroke-linecap: square"/>
   </g>
   <g id="patch_4">
    <path d="M 55.19 377.08 
L 933.255 377.08 
" style="fill: none; stroke: #e5e7eb; stroke-width: 0.8; stroke-linejoin: miter; stroke-linecap: square"/>
   </g>
   <g id="text_22">
    <!-- 50 tokens -->
    <g style="fill: #111118" transform="translate(459.873281 24.771306) scale(0.07 -0.07)">
     <use xlink:href="#DejaVuSans-35"/>
     <use xlink:href="#DejaVuSans-30" transform="translate(63.623047 0)"/>
     <use xlink:href="#DejaVuSans-20" transform="translate(127.246094 0)"/>
     <use xlink:href="#DejaVuSans-74" transform="translate(159.033203 0)"/>
     <use xlink:href="#DejaVuSans-6f" transform="translate(198.242188 0)"/>
     <use xlink:href="#DejaVuSans-6b" transform="translate(259.423828 0)"/>
     <use xlink:href="#DejaVuSans-65" transform="translate(313.708984 0)"/>
     <use xlink:href="#DejaVuSans-6e" transform="translate(375.232422 0)"/>
     <use xlink:href="#DejaVuSans-73" transform="translate(438.611328 0)"/>
    </g>
   </g>
   <g id="legend_1">
    <g id="line2d_51">
     <path d="M 811.431719 30.248281 
L 822.431719 30.248281 
L 833.431719 30.248281 
" style="fill: none; stroke: #dc2626; stroke-width: 2.2; stroke-linecap: square"/>
    </g>
    <g id="text_23">
     <!-- Generic EN / A -->
     <g style="fill: #111118" transform="translate(842.231719 34.098281) scale(0.11 -0.11)">
      <defs>
       <path id="DejaVuSans-47" d="M 3809 666 
L 3809 1919 
L 2778 1919 
L 2778 2438 
L 4434 2438 
L 4434 434 
Q 4069 175 3628 42 
Q 3188 -91 2688 -91 
Q 1594 -91 976 548 
Q 359 1188 359 2328 
Q 359 3472 976 4111 
Q 1594 4750 2688 4750 
Q 3144 4750 3555 4637 
Q 3966 4525 4313 4306 
L 4313 3634 
Q 3963 3931 3569 4081 
Q 3175 4231 2741 4231 
Q 1884 4231 1454 3753 
Q 1025 3275 1025 2328 
Q 1025 1384 1454 906 
Q 1884 428 2741 428 
Q 3075 428 3337 486 
Q 3600 544 3809 666 
z
" transform="scale(0.015625)"/>
       <path id="DejaVuSans-72" d="M 2631 2963 
Q 2534 3019 2420 3045 
Q 2306 3072 2169 3072 
Q 1681 3072 1420 2755 
Q 1159 2438 1159 1844 
L 1159 0 
L 581 0 
L 581 3500 
L 1159 3500 
L 1159 2956 
Q 1341 3275 1631 3429 
Q 1922 3584 2338 3584 
Q 2397 3584 2469 3576 
Q 2541 3569 2628 3553 
L 2631 2963 
z
" transform="scale(0.015625)"/>
       <path id="DejaVuSans-4e" d="M 628 4666 
L 1478 4666 
L 3547 763 
L 3547 4666 
L 4159 4666 
L 4159 0 
L 3309 0 
L 1241 3903 
L 1241 0 
L 628 0 
L 628 4666 
z
" transform="scale(0.015625)"/>
       <path id="DejaVuSans-2f" d="M 1625 4666 
L 2156 4666 
L 531 -594 
L 0 -594 
L 1625 4666 
z
" transform="scale(0.015625)"/>
       <path id="DejaVuSans-41" d="M 2188 4044 
L 1331 1722 
L 3047 1722 
L 2188 4044 
z
M 1831 4666 
L 2547 4666 
L 4325 0 
L 3669 0 
L 3244 1197 
L 1141 1197 
L 716 0 
L 50 0 
L 1831 4666 
z
" transform="scale(0.015625)"/>
      </defs>
      <use xlink:href="#DejaVuSans-47"/>
      <use xlink:href="#DejaVuSans-65" transform="translate(77.490234 0)"/>
      <use xlink:href="#DejaVuSans-6e" transform="translate(139.013672 0)"/>
      <use xlink:href="#DejaVuSans-65" transform="translate(202.392578 0)"/>
      <use xlink:href="#DejaVuSans-72" transform="translate(263.916016 0)"/>
      <use xlink:href="#DejaVuSans-69" transform="translate(305.029297 0)"/>
      <use xlink:href="#DejaVuSans-63" transform="translate(332.8125 0)"/>
      <use xlink:href="#DejaVuSans-20" transform="translate(387.792969 0)"/>
      <use xlink:href="#DejaVuSans-45" transform="translate(419.580078 0)"/>
      <use xlink:href="#DejaVuSans-4e" transform="translate(482.763672 0)"/>
      <use xlink:href="#DejaVuSans-20" transform="translate(557.568359 0)"/>
      <use xlink:href="#DejaVuSans-2f" transform="translate(589.355469 0)"/>
      <use xlink:href="#DejaVuSans-20" transform="translate(623.046875 0)"/>
      <use xlink:href="#DejaVuSans-41" transform="translate(654.833984 0)"/>
     </g>
    </g>
    <g id="line2d_52">
     <path d="M 811.431719 46.394219 
L 822.431719 46.394219 
L 833.431719 46.394219 
" style="fill: none; stroke: #1d4ed8; stroke-width: 2.2; stroke-linecap: square"/>
    </g>
    <g id="text_24">
     <!-- Generic EN / B -->
     <g style="fill: #111118" transform="translate(842.231719 50.244219) scale(0.11 -0.11)">
      <defs>
       <path id="DejaVuSans-42" d="M 1259 2228 
L 1259 519 
L 2272 519 
Q 2781 519 3026 730 
Q 3272 941 3272 1375 
Q 3272 1813 3026 2020 
Q 2781 2228 2272 2228 
L 1259 2228 
z
M 1259 4147 
L 1259 2741 
L 2194 2741 
Q 2656 2741 2882 2914 
Q 3109 3088 3109 3444 
Q 3109 3797 2882 3972 
Q 2656 4147 2194 4147 
L 1259 4147 
z
M 628 4666 
L 2241 4666 
Q 2963 4666 3353 4366 
Q 3744 4066 3744 3513 
Q 3744 3084 3544 2831 
Q 3344 2578 2956 2516 
Q 3422 2416 3680 2098 
Q 3938 1781 3938 1306 
Q 3938 681 3513 340 
Q 3088 0 2303 0 
L 628 0 
L 628 4666 
z
" transform="scale(0.015625)"/>
      </defs>
      <use xlink:href="#DejaVuSans-47"/>
      <use xlink:href="#DejaVuSans-65" transform="translate(77.490234 0)"/>
      <use xlink:href="#DejaVuSans-6e" transform="translate(139.013672 0)"/>
      <use xlink:href="#DejaVuSans-65" transform="translate(202.392578 0)"/>
      <use xlink:href="#DejaVuSans-72" transform="translate(263.916016 0)"/>
      <use xlink:href="#DejaVuSans-69" transform="translate(305.029297 0)"/>
      <use xlink:href="#DejaVuSans-63" transform="translate(332.8125 0)"/>
      <use xlink:href="#DejaVuSans-20" transform="translate(387.792969 0)"/>
      <use xlink:href="#DejaVuSans-45" transform="translate(419.580078 0)"/>
      <use xlink:href="#DejaVuSans-4e" transform="translate(482.763672 0)"/>
      <use xlink:href="#DejaVuSans-20" transform="translate(557.568359 0)"/>
      <use xlink:href="#DejaVuSans-2f" transform="translate(589.355469 0)"/>
      <use xlink:href="#DejaVuSans-20" transform="translate(623.046875 0)"/>
      <use xlink:href="#DejaVuSans-42" transform="translate(654.833984 0)"/>
     </g>
    </g>
    <g id="line2d_53">
     <path d="M 811.431719 62.540156 
L 822.431719 62.540156 
L 833.431719 62.540156 
" style="fill: none; stroke: #15803d; stroke-width: 2.2; stroke-linecap: square"/>
    </g>
    <g id="text_25">
     <!-- Generic EN / C -->
     <g style="fill: #111118" transform="translate(842.231719 66.390156) scale(0.11 -0.11)">
      <defs>
       <path id="DejaVuSans-43" d="M 4122 4306 
L 4122 3641 
Q 3803 3938 3442 4084 
Q 3081 4231 2675 4231 
Q 1875 4231 1450 3742 
Q 1025 3253 1025 2328 
Q 1025 1406 1450 917 
Q 1875 428 2675 428 
Q 3081 428 3442 575 
Q 3803 722 4122 1019 
L 4122 359 
Q 3791 134 3420 21 
Q 3050 -91 2638 -91 
Q 1578 -91 968 557 
Q 359 1206 359 2328 
Q 359 3453 968 4101 
Q 1578 4750 2638 4750 
Q 3056 4750 3426 4639 
Q 3797 4528 4122 4306 
z
" transform="scale(0.015625)"/>
      </defs>
      <use xlink:href="#DejaVuSans-47"/>
      <use xlink:href="#DejaVuSans-65" transform="translate(77.490234 0)"/>
      <use xlink:href="#DejaVuSans-6e" transform="translate(139.013672 0)"/>
      <use xlink:href="#DejaVuSans-65" transform="translate(202.392578 0)"/>
      <use xlink:href="#DejaVuSans-72" transform="translate(263.916016 0)"/>
      <use xlink:href="#DejaVuSans-69" transform="translate(305.029297 0)"/>
      <use xlink:href="#DejaVuSans-63" transform="translate(332.8125 0)"/>
      <use xlink:href="#DejaVuSans-20" transform="translate(387.792969 0)"/>
      <use xlink:href="#DejaVuSans-45" transform="translate(419.580078 0)"/>
      <use xlink:href="#DejaVuSans-4e" transform="translate(482.763672 0)"/>
      <use xlink:href="#DejaVuSans-20" transform="translate(557.568359 0)"/>
      <use xlink:href="#DejaVuSans-2f" transform="translate(589.355469 0)"/>
      <use xlink:href="#DejaVuSans-20" transform="translate(623.046875 0)"/>
      <use xlink:href="#DejaVuSans-43" transform="translate(654.833984 0)"/>
     </g>
    </g>
    <g id="line2d_54">
     <path d="M 811.431719 78.686094 
L 822.431719 78.686094 
L 833.431719 78.686094 
" style="fill: none; stroke: #f0a96b; stroke-width: 2.2; stroke-linecap: square"/>
    </g>
    <g id="text_26">
     <!-- Generic EN / D -->
     <g style="fill: #111118" transform="translate(842.231719 82.536094) scale(0.11 -0.11)">
      <defs>
       <path id="DejaVuSans-44" d="M 1259 4147 
L 1259 519 
L 2022 519 
Q 2988 519 3436 956 
Q 3884 1394 3884 2338 
Q 3884 3275 3436 3711 
Q 2988 4147 2022 4147 
L 1259 4147 
z
M 628 4666 
L 1925 4666 
Q 3281 4666 3915 4102 
Q 4550 3538 4550 2338 
Q 4550 1131 3912 565 
Q 3275 0 1925 0 
L 628 0 
L 628 4666 
z
" transform="scale(0.015625)"/>
      </defs>
      <use xlink:href="#DejaVuSans-47"/>
      <use xlink:href="#DejaVuSans-65" transform="translate(77.490234 0)"/>
      <use xlink:href="#DejaVuSans-6e" transform="translate(139.013672 0)"/>
      <use xlink:href="#DejaVuSans-65" transform="translate(202.392578 0)"/>
      <use xlink:href="#DejaVuSans-72" transform="translate(263.916016 0)"/>
      <use xlink:href="#DejaVuSans-69" transform="translate(305.029297 0)"/>
      <use xlink:href="#DejaVuSans-63" transform="translate(332.8125 0)"/>
      <use xlink:href="#DejaVuSans-20" transform="translate(387.792969 0)"/>
      <use xlink:href="#DejaVuSans-45" transform="translate(419.580078 0)"/>
      <use xlink:href="#DejaVuSans-4e" transform="translate(482.763672 0)"/>
      <use xlink:href="#DejaVuSans-20" transform="translate(557.568359 0)"/>
      <use xlink:href="#DejaVuSans-2f" transform="translate(589.355469 0)"/>
      <use xlink:href="#DejaVuSans-20" transform="translate(623.046875 0)"/>
      <use xlink:href="#DejaVuSans-44" transform="translate(654.833984 0)"/>
     </g>
    </g>
    <g id="line2d_55">
     <path d="M 811.431719 94.832031 
L 822.431719 94.832031 
L 833.431719 94.832031 
" style="fill: none; stroke: #be185d; stroke-width: 2.2; stroke-linecap: square"/>
    </g>
    <g id="text_27">
     <!-- Generic DA / A -->
     <g style="fill: #111118" transform="translate(842.231719 98.682031) scale(0.11 -0.11)">
      <use xlink:href="#DejaVuSans-47"/>
      <use xlink:href="#DejaVuSans-65" transform="translate(77.490234 0)"/>
      <use xlink:href="#DejaVuSans-6e" transform="translate(139.013672 0)"/>
      <use xlink:href="#DejaVuSans-65" transform="translate(202.392578 0)"/>
      <use xlink:href="#DejaVuSans-72" transform="translate(263.916016 0)"/>
      <use xlink:href="#DejaVuSans-69" transform="translate(305.029297 0)"/>
      <use xlink:href="#DejaVuSans-63" transform="translate(332.8125 0)"/>
      <use xlink:href="#DejaVuSans-20" transform="translate(387.792969 0)"/>
      <use xlink:href="#DejaVuSans-44" transform="translate(419.580078 0)"/>
      <use xlink:href="#DejaVuSans-41" transform="translate(494.832031 0)"/>
      <use xlink:href="#DejaVuSans-20" transform="translate(563.240234 0)"/>
      <use xlink:href="#DejaVuSans-2f" transform="translate(595.027344 0)"/>
      <use xlink:href="#DejaVuSans-20" transform="translate(628.71875 0)"/>
      <use xlink:href="#DejaVuSans-41" transform="translate(660.505859 0)"/>
     </g>
    </g>
    <g id="line2d_56">
     <path d="M 811.431719 110.977969 
L 822.431719 110.977969 
L 833.431719 110.977969 
" style="fill: none; stroke: #111118; stroke-width: 2.2; stroke-linecap: square"/>
    </g>
    <g id="text_28">
     <!-- Generic DA / B -->
     <g style="fill: #111118" transform="translate(842.231719 114.827969) scale(0.11 -0.11)">
      <use xlink:href="#DejaVuSans-47"/>
      <use xlink:href="#DejaVuSans-65" transform="translate(77.490234 0)"/>
      <use xlink:href="#DejaVuSans-6e" transform="translate(139.013672 0)"/>
      <use xlink:href="#DejaVuSans-65" transform="translate(202.392578 0)"/>
      <use xlink:href="#DejaVuSans-72" transform="translate(263.916016 0)"/>
      <use xlink:href="#DejaVuSans-69" transform="translate(305.029297 0)"/>
      <use xlink:href="#DejaVuSans-63" transform="translate(332.8125 0)"/>
      <use xlink:href="#DejaVuSans-20" transform="translate(387.792969 0)"/>
      <use xlink:href="#DejaVuSans-44" transform="translate(419.580078 0)"/>
      <use xlink:href="#DejaVuSans-41" transform="translate(494.832031 0)"/>
      <use xlink:href="#DejaVuSans-20" transform="translate(563.240234 0)"/>
      <use xlink:href="#DejaVuSans-2f" transform="translate(595.027344 0)"/>
      <use xlink:href="#DejaVuSans-20" transform="translate(628.71875 0)"/>
      <use xlink:href="#DejaVuSans-42" transform="translate(660.505859 0)"/>
     </g>
    </g>
    <g id="line2d_57">
     <path d="M 811.431719 127.123906 
L 822.431719 127.123906 
L 833.431719 127.123906 
" style="fill: none; stroke: #c87979; stroke-width: 2.2; stroke-linecap: square"/>
    </g>
    <g id="text_29">
     <!-- Generic DA / C -->
     <g style="fill: #111118" transform="translate(842.231719 130.973906) scale(0.11 -0.11)">
      <use xlink:href="#DejaVuSans-47"/>
      <use xlink:href="#DejaVuSans-65" transform="translate(77.490234 0)"/>
      <use xlink:href="#DejaVuSans-6e" transform="translate(139.013672 0)"/>
      <use xlink:href="#DejaVuSans-65" transform="translate(202.392578 0)"/>
      <use xlink:href="#DejaVuSans-72" transform="translate(263.916016 0)"/>
      <use xlink:href="#DejaVuSans-69" transform="translate(305.029297 0)"/>
      <use xlink:href="#DejaVuSans-63" transform="translate(332.8125 0)"/>
      <use xlink:href="#DejaVuSans-20" transform="translate(387.792969 0)"/>
      <use xlink:href="#DejaVuSans-44" transform="translate(419.580078 0)"/>
      <use xlink:href="#DejaVuSans-41" transform="translate(494.832031 0)"/>
      <use xlink:href="#DejaVuSans-20" transform="translate(563.240234 0)"/>
      <use xlink:href="#DejaVuSans-2f" transform="translate(595.027344 0)"/>
      <use xlink:href="#DejaVuSans-20" transform="translate(628.71875 0)"/>
      <use xlink:href="#DejaVuSans-43" transform="translate(660.505859 0)"/>
     </g>
    </g>
    <g id="line2d_58">
     <path d="M 811.431719 143.269844 
L 822.431719 143.269844 
L 833.431719 143.269844 
" style="fill: none; stroke: #7aa8e8; stroke-width: 2.2; stroke-linecap: square"/>
    </g>
    <g id="text_30">
     <!-- Generic DA / D -->
     <g style="fill: #111118" transform="translate(842.231719 147.119844) scale(0.11 -0.11)">
      <use xlink:href="#DejaVuSans-47"/>
      <use xlink:href="#DejaVuSans-65" transform="translate(77.490234 0)"/>
      <use xlink:href="#DejaVuSans-6e" transform="translate(139.013672 0)"/>
      <use xlink:href="#DejaVuSans-65" transform="translate(202.392578 0)"/>
      <use xlink:href="#DejaVuSans-72" transform="translate(263.916016 0)"/>
      <use xlink:href="#DejaVuSans-69" transform="translate(305.029297 0)"/>
      <use xlink:href="#DejaVuSans-63" transform="translate(332.8125 0)"/>
      <use xlink:href="#DejaVuSans-20" transform="translate(387.792969 0)"/>
      <use xlink:href="#DejaVuSans-44" transform="translate(419.580078 0)"/>
      <use xlink:href="#DejaVuSans-41" transform="translate(494.832031 0)"/>
      <use xlink:href="#DejaVuSans-20" transform="translate(563.240234 0)"/>
      <use xlink:href="#DejaVuSans-2f" transform="translate(595.027344 0)"/>
      <use xlink:href="#DejaVuSans-20" transform="translate(628.71875 0)"/>
      <use xlink:href="#DejaVuSans-44" transform="translate(660.505859 0)"/>
     </g>
    </g>
    <g id="line2d_59">
     <path d="M 811.431719 159.415781 
L 822.431719 159.415781 
L 833.431719 159.415781 
" style="fill: none; stroke: #6bbf8a; stroke-width: 2.2; stroke-linecap: square"/>
    </g>
    <g id="text_31">
     <!-- Prefix A/50 -->
     <g style="fill: #111118" transform="translate(842.231719 163.265781) scale(0.11 -0.11)">
      <defs>
       <path id="DejaVuSans-50" d="M 1259 4147 
L 1259 2394 
L 2053 2394 
Q 2494 2394 2734 2622 
Q 2975 2850 2975 3272 
Q 2975 3691 2734 3919 
Q 2494 4147 2053 4147 
L 1259 4147 
z
M 628 4666 
L 2053 4666 
Q 2838 4666 3239 4311 
Q 3641 3956 3641 3272 
Q 3641 2581 3239 2228 
Q 2838 1875 2053 1875 
L 1259 1875 
L 1259 0 
L 628 0 
L 628 4666 
z
" transform="scale(0.015625)"/>
       <path id="DejaVuSans-66" d="M 2375 4863 
L 2375 4384 
L 1825 4384 
Q 1516 4384 1395 4259 
Q 1275 4134 1275 3809 
L 1275 3500 
L 2222 3500 
L 2222 3053 
L 1275 3053 
L 1275 0 
L 697 0 
L 697 3053 
L 147 3053 
L 147 3500 
L 697 3500 
L 697 3744 
Q 697 4328 969 4595 
Q 1241 4863 1831 4863 
L 2375 4863 
z
" transform="scale(0.015625)"/>
      </defs>
      <use xlink:href="#DejaVuSans-50"/>
      <use xlink:href="#DejaVuSans-72" transform="translate(58.552734 0)"/>
      <use xlink:href="#DejaVuSans-65" transform="translate(97.416016 0)"/>
      <use xlink:href="#DejaVuSans-66" transform="translate(158.939453 0)"/>
      <use xlink:href="#DejaVuSans-69" transform="translate(194.144531 0)"/>
      <use xlink:href="#DejaVuSans-78" transform="translate(221.927734 0)"/>
      <use xlink:href="#DejaVuSans-20" transform="translate(281.107422 0)"/>
      <use xlink:href="#DejaVuSans-41" transform="translate(312.894531 0)"/>
      <use xlink:href="#DejaVuSans-2f" transform="translate(381.302734 0)"/>
      <use xlink:href="#DejaVuSans-35" transform="translate(414.994141 0)"/>
      <use xlink:href="#DejaVuSans-30" transform="translate(478.617188 0)"/>
     </g>
    </g>
    <g id="line2d_60">
     <path d="M 811.431719 175.561719 
L 822.431719 175.561719 
L 833.431719 175.561719 
" style="fill: none; stroke: #e08866; stroke-width: 2.2; stroke-linecap: square"/>
    </g>
    <g id="text_32">
     <!-- Prefix B/50 -->
     <g style="fill: #111118" transform="translate(842.231719 179.411719) scale(0.11 -0.11)">
      <use xlink:href="#DejaVuSans-50"/>
      <use xlink:href="#DejaVuSans-72" transform="translate(58.552734 0)"/>
      <use xlink:href="#DejaVuSans-65" transform="translate(97.416016 0)"/>
      <use xlink:href="#DejaVuSans-66" transform="translate(158.939453 0)"/>
      <use xlink:href="#DejaVuSans-69" transform="translate(194.144531 0)"/>
      <use xlink:href="#DejaVuSans-78" transform="translate(221.927734 0)"/>
      <use xlink:href="#DejaVuSans-20" transform="translate(281.107422 0)"/>
      <use xlink:href="#DejaVuSans-42" transform="translate(312.894531 0)"/>
      <use xlink:href="#DejaVuSans-2f" transform="translate(381.498047 0)"/>
      <use xlink:href="#DejaVuSans-35" transform="translate(415.189453 0)"/>
      <use xlink:href="#DejaVuSans-30" transform="translate(478.8125 0)"/>
     </g>
    </g>
    <g id="line2d_61">
     <path d="M 811.431719 191.707656 
L 822.431719 191.707656 
L 833.431719 191.707656 
" style="fill: none; stroke: #d67aa5; stroke-width: 2.2; stroke-linecap: square"/>
    </g>
    <g id="text_33">
     <!-- Prefix C/50 -->
     <g style="fill: #111118" transform="translate(842.231719 195.557656) scale(0.11 -0.11)">
      <use xlink:href="#DejaVuSans-50"/>
      <use xlink:href="#DejaVuSans-72" transform="translate(58.552734 0)"/>
      <use xlink:href="#DejaVuSans-65" transform="translate(97.416016 0)"/>
      <use xlink:href="#DejaVuSans-66" transform="translate(158.939453 0)"/>
      <use xlink:href="#DejaVuSans-69" transform="translate(194.144531 0)"/>
      <use xlink:href="#DejaVuSans-78" transform="translate(221.927734 0)"/>
      <use xlink:href="#DejaVuSans-20" transform="translate(281.107422 0)"/>
      <use xlink:href="#DejaVuSans-43" transform="translate(312.894531 0)"/>
      <use xlink:href="#DejaVuSans-2f" transform="translate(382.71875 0)"/>
      <use xlink:href="#DejaVuSans-35" transform="translate(416.410156 0)"/>
      <use xlink:href="#DejaVuSans-30" transform="translate(480.033203 0)"/>
     </g>
    </g>
    <g id="line2d_62">
     <path d="M 811.431719 207.853594 
L 822.431719 207.853594 
L 833.431719 207.853594 
" style="fill: none; stroke: #5da87a; stroke-width: 2.2; stroke-linecap: square"/>
    </g>
    <g id="text_34">
     <!-- Prefix D/50 -->
     <g style="fill: #111118" transform="translate(842.231719 211.703594) scale(0.11 -0.11)">
      <use xlink:href="#DejaVuSans-50"/>
      <use xlink:href="#DejaVuSans-72" transform="translate(58.552734 0)"/>
      <use xlink:href="#DejaVuSans-65" transform="translate(97.416016 0)"/>
      <use xlink:href="#DejaVuSans-66" transform="translate(158.939453 0)"/>
      <use xlink:href="#DejaVuSans-69" transform="translate(194.144531 0)"/>
      <use xlink:href="#DejaVuSans-78" transform="translate(221.927734 0)"/>
      <use xlink:href="#DejaVuSans-20" transform="translate(281.107422 0)"/>
      <use xlink:href="#DejaVuSans-44" transform="translate(312.894531 0)"/>
      <use xlink:href="#DejaVuSans-2f" transform="translate(389.896484 0)"/>
      <use xlink:href="#DejaVuSans-35" transform="translate(423.587891 0)"/>
      <use xlink:href="#DejaVuSans-30" transform="translate(487.210938 0)"/>
     </g>
    </g>
   </g>
  </g>
 </g>
 <defs>
  <clipPath id="p0f0c2b29b7">
   <rect x="55.19" y="15.84" width="878.065" height="361.24"/>
  </clipPath>
 </defs>
</svg>
